<?xml version="1.0" encoding="UTF-8" standalone="no"?>
<svg
   version="1.1"
   x="0px"
   y="0px"
   viewBox="0 0 60 75"
   enable-background="new 0 0 60 60"
   xml:space="preserve"
   id="svg612"
   sodipodi:docname="noun-rocket-5738013.svg"
   inkscape:version="1.2.2 (b0a8486541, 2022-12-01)"
   xmlns:inkscape="http://www.inkscape.org/namespaces/inkscape"
   xmlns:sodipodi="http://sodipodi.sourceforge.net/DTD/sodipodi-0.dtd"
   xmlns="http://www.w3.org/2000/svg"
   xmlns:svg="http://www.w3.org/2000/svg"
   xmlns:ns="http://ns.adobe.com/SaveForWeb/1.0/"><defs
     id="defs616" /><sodipodi:namedview
     id="namedview614"
     pagecolor="#ffffff"
     bordercolor="#000000"
     borderopacity="0.25"
     inkscape:showpageshadow="2"
     inkscape:pageopacity="0.0"
     inkscape:pagecheckerboard="0"
     inkscape:deskcolor="#d1d1d1"
     showgrid="false"
     inkscape:zoom="7.0666667"
     inkscape:cx="30"
     inkscape:cy="60.212264"
     inkscape:window-width="1366"
     inkscape:window-height="696"
     inkscape:window-x="0"
     inkscape:window-y="29"
     inkscape:window-maximized="1"
     inkscape:current-layer="svg612" /><metadata
     id="metadata594"><ns:sfw><ns:slices /><ns:sliceSourceBounds
         width="3263.836"
         height="1405.967"
         y="-1013.469"
         x="-850.199"
         bottomLeftOrigin="true" /></ns:sfw></metadata><g
     id="g606"><path
       d="M45.902,43.778l-2.157-3.874c-0.001-0.003-0.004-0.004-0.005-0.007c-0.029-0.05-0.065-0.094-0.109-0.13   c-0.002-0.002-0.004-0.006-0.006-0.008c-0.045-0.037-0.098-0.065-0.152-0.085c-0.026-0.009-0.054-0.01-0.08-0.014   c-0.028-0.007-0.058-0.017-0.088-0.017h-0.014c-0.001,0-0.002,0-0.004,0h-8.41l-1.354-14.52c-0.026-0.279-0.256-0.475-0.55-0.457   c-0.276,0.026-0.48,0.272-0.455,0.55l1.596,17.126h-8.432l1.805-17.119c0.029-0.278-0.171-0.526-0.448-0.555   c-0.291-0.031-0.525,0.171-0.555,0.448l-1.532,14.526h-0.932c-0.062,0-0.123,0.012-0.181,0.034l-7.003,2.698   c-0.023,0.009-0.041,0.025-0.063,0.039c-0.016,0.009-0.031,0.017-0.046,0.026c-0.067,0.049-0.123,0.111-0.159,0.186   c-0.002,0.005-0.008,0.007-0.01,0.012l-2.48,5.439c-0.07,0.156-0.058,0.337,0.035,0.482c0.093,0.144,0.253,0.231,0.425,0.231h1.975   v8.466c0,0.279,0.226,0.505,0.505,0.505h19.935c0.07,0,0.137-0.015,0.198-0.04l6.349-2.663c0.188-0.078,0.31-0.262,0.31-0.465   v-9.072l1.898-1.06C45.95,44.328,46.038,44.021,45.902,43.778z M34.971,40.654h5.856l-3.977,1.689h-1.722L34.971,40.654z    M24.114,40.654h0.731l-0.179,1.689h-4.936L24.114,40.654z M17.343,43.354h18.89l-1.608,4.43H15.323L17.343,43.354z M17.523,48.793   h17.454c0.212,0,0.402-0.133,0.475-0.332l0.996-2.744v11.037H17.523V48.793z M42.8,54.26l-5.342,2.24V44.905l1.442,2.764   c0.063,0.122,0.173,0.211,0.303,0.251c0.048,0.014,0.097,0.021,0.146,0.021c0.085,0,0.17-0.021,0.246-0.064l3.205-1.789V54.26z    M39.556,46.742L37.652,43.1l4.271-1.815l1.161-0.493l1.69,3.037L39.556,46.742z"
       id="path596" /><path
       d="M21.751,27.759c0.026,0.004,0.053,0.006,0.079,0.006c0.203,0,0.39-0.123,0.468-0.315c0.805-1.992,2.265-4.679,3.37-5.39   v1.814c0,0.279,0.226,0.505,0.505,0.505h7.653c0.279,0,0.505-0.226,0.505-0.505V22.06c1.104,0.711,2.565,3.397,3.37,5.39   c0.078,0.193,0.265,0.315,0.468,0.315c0.026,0,0.053-0.002,0.079-0.006c0.231-0.037,0.408-0.229,0.425-0.463   c0.802-11.176-2.185-13.84-3.211-14.42c-0.383-5.796-4.908-10.3-5.109-10.496c-0.197-0.19-0.508-0.19-0.705,0   c-0.201,0.196-4.727,4.7-5.109,10.496c-1.025,0.578-4.015,3.239-3.212,14.42C21.343,27.53,21.52,27.722,21.751,27.759z    M33.321,23.369h-6.644v-1.493h6.644V23.369z M37.775,25.167c-0.846-1.689-2.167-3.832-3.529-4.22   c0.755-1.905,1.187-4.266,1.241-6.774C36.421,15.11,38.02,17.796,37.775,25.167z M30,3.477c1.116,1.231,4.49,5.36,4.49,10.168   c0,2.715-0.465,5.26-1.302,7.222h-6.376c-0.838-1.963-1.303-4.507-1.303-7.222C25.51,8.837,28.884,4.708,30,3.477z M24.513,14.172   c0.055,2.509,0.486,4.869,1.241,6.775c-1.363,0.388-2.685,2.53-3.53,4.22C21.979,17.793,23.58,15.108,24.513,14.172z"
       id="path598" /><path
       d="M30,15.232c1.752,0,3.177-1.425,3.177-3.177S31.752,8.879,30,8.879s-3.177,1.425-3.177,3.177S28.248,15.232,30,15.232z    M30,9.888c1.195,0,2.168,0.973,2.168,2.168S31.195,14.224,30,14.224s-2.168-0.973-2.168-2.168S28.805,9.888,30,9.888z"
       id="path600" /><path
       d="M28.109,25.139l-0.883,13.527c-0.018,0.278,0.192,0.518,0.471,0.536c0.011,0.001,0.021,0.001,0.033,0.001   c0.264,0,0.485-0.205,0.503-0.472l0.884-13.527c0.018-0.278-0.192-0.518-0.472-0.537C28.397,24.647,28.128,24.859,28.109,25.139z"
       id="path602" /><path
       d="M31.099,24.667c-0.278,0.02-0.488,0.259-0.471,0.537l0.883,13.527c0.018,0.267,0.24,0.472,0.503,0.472   c0.012,0,0.022,0,0.033-0.001c0.279-0.019,0.489-0.258,0.472-0.536l-0.884-13.527C31.617,24.859,31.355,24.649,31.099,24.667z"
       id="path604" /></g></svg>
