<?xml version="1.0" encoding="UTF-8" standalone="no"?>
<svg
   version="1.1"
   viewBox="-5.0 -10.0 110.0 135.0"
   id="svg8"
   sodipodi:docname="software.svg"
   inkscape:version="1.2.2 (b0a8486541, 2022-12-01)"
   xmlns:inkscape="http://www.inkscape.org/namespaces/inkscape"
   xmlns:sodipodi="http://sodipodi.sourceforge.net/DTD/sodipodi-0.dtd"
   xmlns="http://www.w3.org/2000/svg"
   xmlns:svg="http://www.w3.org/2000/svg">
  <defs
     id="defs12" />
  <sodipodi:namedview
     id="namedview10"
     pagecolor="#ffffff"
     bordercolor="#000000"
     borderopacity="0.25"
     inkscape:showpageshadow="2"
     inkscape:pageopacity="0.0"
     inkscape:pagecheckerboard="0"
     inkscape:deskcolor="#d1d1d1"
     showgrid="false"
     inkscape:zoom="3.9259259"
     inkscape:cx="55.018868"
     inkscape:cy="88.004717"
     inkscape:window-width="1366"
     inkscape:window-height="696"
     inkscape:window-x="0"
     inkscape:window-y="29"
     inkscape:window-maximized="1"
     inkscape:current-layer="svg8" />
  <path
     d="m89.422 7.4219h-78.844c-3.6211 0-6.5703 2.9492-6.5703 6.5703l0.003907 53.508c0 3.6211 2.9492 6.5703 6.5703 6.5703h28.18l-2.2617 10.77h-3.3398c-2.1289 0-3.8711 1.7383-3.8711 3.8711 0 2.1289 1.7383 3.8711 3.8711 3.8711h33.699c2.1289 0 3.8711-1.7383 3.8711-3.8711 0-2.1289-1.7383-3.8711-3.8711-3.8711h-3.3398l-2.2617-10.77h28.18c3.6211 0 6.5703-2.9492 6.5703-6.5703l0.003907-53.512c-0.023438-3.6172-2.9609-6.5664-6.5898-6.5664zm-78.844 1.8789h78.84c2.5898 0 4.6914 2.1094 4.6914 4.6914v48.238h-88.23v-48.242c0-2.5781 2.1094-4.6875 4.6992-4.6875zm58.262 79.41c0 1.1016-0.89062 1.9883-1.9883 1.9883h-33.699c-1.1016 0-1.9883-0.89062-1.9883-1.9883 0-1.1016 0.89063-1.9883 1.9883-1.9883h33.699c1.0977-0.003906 1.9883 0.88672 1.9883 1.9883zm-7.25-3.8711h-23.18l2.2617-10.77h18.66zm27.832-12.648h-78.844c-2.5898 0-4.6914-2.1094-4.6914-4.6914v-3.3906h88.23v3.3906c0.003906 2.5898-2.1055 4.6914-4.6953 4.6914zm-34.871-4.3516c0 0.51953-0.42188 0.94141-0.94141 0.94141h-7.2188c-0.51953 0-0.94141-0.42188-0.94141-0.94141 0-0.51953 0.42188-0.94141 0.94141-0.94141h7.2188c0.51953 0 0.94141 0.42187 0.94141 0.94141zm-38.172-19.699h25.441c1.8086 0 3.2695-1.4688 3.2695-3.2695v-18.199c0-1.8008-1.4688-3.2695-3.2695-3.2695l-25.441-0.003906c-1.8008 0-3.2695 1.4688-3.2695 3.2695v18.191c0 1.8125 1.4688 3.2812 3.2695 3.2812zm25.449-1.8789h-25.449c-0.76953 0-1.3984-0.62891-1.3984-1.3984v-13.652h28.238v13.648c0.011719 0.76953-0.61719 1.4023-1.3906 1.4023zm-25.449-20.98h25.441c0.76953 0 1.3984 0.62891 1.3984 1.3984v2.6602h-28.23v-2.6602c0-0.78125 0.62109-1.3984 1.3906-1.3984zm15.062 8.3789-2.8516 10.641c-0.10938 0.42188-0.48828 0.69922-0.91016 0.69922-0.078126 0-0.16016-0.011719-0.23828-0.03125-0.5-0.12891-0.80078-0.64844-0.66016-1.1484l2.8516-10.629c0.12891-0.5 0.64844-0.80078 1.1484-0.66016 0.5 0.11719 0.78906 0.62891 0.66016 1.1289zm-6.7617 2.0117-3.0703 3.0703 3.0703 3.0703c0.37109 0.37109 0.37109 0.96094 0 1.3281-0.17969 0.17969-0.42188 0.26953-0.66016 0.26953s-0.48047-0.089844-0.66016-0.26953l-3.7305-3.7305c-0.37109-0.37109-0.37109-0.96094 0-1.3281l3.7305-3.7305c0.37109-0.37109 0.96094-0.37109 1.3281 0 0.36328 0.35938 0.36328 0.94922-0.007812 1.3203zm13.91 2.3984c0.37109 0.37109 0.37109 0.96094 0 1.3281l-3.7305 3.7305c-0.17969 0.17969-0.42188 0.26953-0.66016 0.26953s-0.48047-0.089844-0.66016-0.26953c-0.37109-0.37109-0.37109-0.96094 0-1.3281l3.0703-3.0703-3.0703-3.0703c-0.37109-0.37109-0.37109-0.96094 0-1.3281 0.37109-0.37109 0.96094-0.37109 1.3281 0zm16.051 1.168 1.8711 0.33984c0.30078 1.0586 0.71875 2.0781 1.2617 3.0391l-1.0898 1.5703c-0.51172 0.73047-0.42188 1.7188 0.21094 2.3516l2.3516 2.3516c0.62891 0.62891 1.6211 0.71875 2.3516 0.21094l1.5703-1.0781c0.96094 0.53906 1.9805 0.96094 3.0391 1.2617l0.33984 1.8711c0.16016 0.87891 0.92188 1.5117 1.8086 1.5117h3.3203c0.89062 0 1.6484-0.64062 1.8086-1.5117l0.33984-1.8711c1.0508-0.30078 2.0781-0.71875 3.0391-1.2617l1.5703 1.0898c0.73047 0.51172 1.7188 0.42188 2.3516-0.21094l2.3516-2.3516c0.62891-0.62891 0.71875-1.6211 0.21094-2.3516l-1.0898-1.5703c0.53906-0.96094 0.96094-1.9805 1.2617-3.0391l1.8711-0.33984c0.87891-0.16016 1.5117-0.92188 1.5117-1.8086v-3.3203c0-0.89062-0.64062-1.6484-1.5117-1.8086l-1.8711-0.33984c-0.30078-1.0586-0.71875-2.0781-1.2617-3.0391l1.0898-1.5703c0.51172-0.73047 0.42188-1.7188-0.21094-2.3516l-2.3516-2.3516c-0.62891-0.62891-1.6211-0.71875-2.3516-0.21094l-1.5703 1.0898c-0.96094-0.53906-1.9805-0.96094-3.0391-1.2617l-0.33984-1.8711c-0.16016-0.87891-0.92188-1.5117-1.8086-1.5117h-3.3203c-0.89062 0-1.6484 0.64062-1.8086 1.5117l-0.33984 1.8711c-1.0586 0.30078-2.0781 0.71875-3.0391 1.2617l-1.5703-1.0898c-0.73047-0.51172-1.7188-0.42188-2.3516 0.21094l-2.3477 2.3398c-0.62891 0.62891-0.71875 1.6211-0.21094 2.3516l1.0898 1.5703c-0.53906 0.96094-0.96094 1.9805-1.2617 3.0391l-1.8711 0.33984c-0.87891 0.16016-1.5117 0.92188-1.5117 1.8086v3.3203c-0.003906 0.89062 0.62891 1.6484 1.5078 1.8086zm0.35938-5.0977 1.8711-0.33984c0.69922-0.12891 1.25-0.62891 1.4414-1.3086 0.26172-0.92969 0.62891-1.8203 1.1094-2.6719 0.35156-0.62109 0.30859-1.3711-0.089844-1.9492l-1.0781-1.5586 2.3008-2.3008 1.5586 1.0781c0.57812 0.39844 1.3281 0.44141 1.9492 0.089844 0.83984-0.46875 1.7383-0.85156 2.6602-1.1094 0.67969-0.19141 1.1914-0.75 1.3086-1.4414l0.33984-1.8711h3.2617l0.33984 1.8711c0.12891 0.69922 0.62891 1.25 1.3086 1.4414 0.92969 0.26172 1.8203 0.62891 2.6719 1.1094 0.62109 0.35156 1.3711 0.30859 1.9492-0.089844l1.5586-1.0781 2.3008 2.3008-1.0781 1.5586c-0.39844 0.57812-0.44141 1.3281-0.089844 1.9492 0.46875 0.83984 0.85156 1.7383 1.1094 2.6602 0.19141 0.67969 0.73828 1.1914 1.4414 1.3086l1.8711 0.33984v3.2617l-1.8711 0.33984c-0.69922 0.12891-1.25 0.62891-1.4414 1.3086-0.26172 0.92969-0.62891 1.8203-1.1094 2.6719-0.35156 0.62109-0.30859 1.3711 0.089844 1.9492l1.0781 1.5586-2.3008 2.3008-1.5586-1.0781c-0.57812-0.39844-1.3281-0.44141-1.9492-0.089844-0.83984 0.46875-1.7383 0.85156-2.6602 1.1094-0.67969 0.19141-1.1914 0.73828-1.3086 1.4414l-0.33984 1.8711h-3.2617l-0.33984-1.8711c-0.12891-0.69922-0.62891-1.25-1.3086-1.4414-0.92969-0.26172-1.8203-0.62891-2.6719-1.1094-0.62109-0.35156-1.3711-0.30859-1.9492 0.089844l-1.5586 1.0781-2.3008-2.3008 1.0781-1.5586c0.41016-0.57812 0.44141-1.3281 0.089844-1.9492-0.46875-0.83984-0.85156-1.7383-1.1094-2.6719-0.19141-0.67969-0.75-1.1914-1.4414-1.3086l-1.8711-0.33203zm15.012 10.32c4.7891 0 8.6914-3.8984 8.6914-8.6914 0-4.7891-3.8984-8.6914-8.6914-8.6914-4.7891 0-8.6914 3.8984-8.6914 8.6914 0 4.7891 3.8906 8.6914 8.6914 8.6914zm0-15.512c3.7617 0 6.8203 3.0586 6.8203 6.8203s-3.0586 6.8203-6.8203 6.8203-6.8203-3.0586-6.8203-6.8203c0-3.7578 3.0586-6.8203 6.8203-6.8203z"
     id="path2" />
</svg>
