<?xml version="1.0" encoding="UTF-8" standalone="no"?>
<svg
   version="1.1"
   viewBox="-5.0 -10.0 110.0 135.0"
   id="svg120"
   sodipodi:docname="health.svg"
   inkscape:version="1.2.2 (b0a8486541, 2022-12-01)"
   xmlns:inkscape="http://www.inkscape.org/namespaces/inkscape"
   xmlns:sodipodi="http://sodipodi.sourceforge.net/DTD/sodipodi-0.dtd"
   xmlns="http://www.w3.org/2000/svg"
   xmlns:svg="http://www.w3.org/2000/svg">
  <defs
     id="defs124" />
  <sodipodi:namedview
     id="namedview122"
     pagecolor="#ffffff"
     bordercolor="#000000"
     borderopacity="0.25"
     inkscape:showpageshadow="2"
     inkscape:pageopacity="0.0"
     inkscape:pagecheckerboard="0"
     inkscape:deskcolor="#d1d1d1"
     showgrid="false"
     inkscape:zoom="3.9259259"
     inkscape:cx="55.018868"
     inkscape:cy="128.75943"
     inkscape:window-width="1366"
     inkscape:window-height="696"
     inkscape:window-x="0"
     inkscape:window-y="29"
     inkscape:window-maximized="1"
     inkscape:current-layer="svg120" />
  <path
     d="m47.391 34.816c-8.0664-4.1914-17.902 1.6406-17.902 10.879 0 14.863 16.793 22.656 17.508 22.98 0.125 0.058594 0.26172 0.085938 0.39453 0.085938s0.26953-0.027344 0.39453-0.085938c0.71484-0.32422 17.508-8.1172 17.508-22.98 0-9.2422-9.832-15.07-17.902-10.879zm0 31.926c-2.5039-1.2578-15.992-8.625-15.992-21.047 0-7.9922 8.6953-12.902 15.516-8.9609 1.0117 0.58594 2.0898-1.3828 6.1289-1.3828 5.7031 0 10.34 4.6406 10.34 10.344 0 12.422-13.488 19.785-15.992 21.047z"
     id="path108" />
  <path
     d="m80.801 1.2773c-9.8789 0-17.918 8.0391-17.918 17.918 0 2.3008 0.45313 4.4922 1.2461 6.5156l-46.656 0.003906c-2.832 0-5.1406 2.3047-5.1406 5.1406v42.426l-10.902 16.93c-0.18359 0.28516-0.1875 0.68359-0.070313 0.94922l2.3438 5.2461c0.62891 1.4062 2.0312 2.3164 3.5703 2.3164h80.234c1.543 0 2.9414-0.91016 3.5703-2.3164l2.3438-5.2461c0.11719-0.26562 0.11719-0.66016-0.070313-0.94922l-10.902-16.934-0.003907-36.254c9.1133-0.83203 16.273-8.5078 16.273-17.828 0-9.8789-8.0352-17.918-17.918-17.918zm-66.555 29.578c0-1.7812 1.4492-3.2305 3.2266-3.2305h47.527c2.9805 5.5625 8.8164 9.3711 15.539 9.4688v35.508l-66.293 0.003907zm75.086 64.773c-0.32031 0.71875-1.0391 1.1836-1.8242 1.1836h-80.234c-0.78906 0-1.5039-0.46484-1.8242-1.1836l-1.7422-3.8984h87.367zm-52.543-5.8555 3.582-5.1289h14.039l3.582 5.1289zm54.004 0h-30.469l-4.6328-6.6328c-0.17969-0.25781-0.47266-0.41016-0.78516-0.41016h-15.035c-0.3125 0-0.60547 0.15234-0.78516 0.41016l-4.6289 6.6328h-30.473l9.8281-15.262h67.16zm-9.9922-54.574c-8.8281 0-16.008-7.1758-16.008-16 0-8.8281 7.1836-16.008 16.008-16.008 8.8281 0 16.008 7.1836 16.008 16.008 0 8.8203-7.1797 16-16.008 16z"
     id="path110" />
  <path
     d="m90.176 14.523h-4.707v-4.707c0-0.52734-0.42578-0.95703-0.95703-0.95703h-7.4219c-0.52734 0-0.95703 0.42578-0.95703 0.95703v4.707h-4.707c-0.52734 0-0.95703 0.42578-0.95703 0.95703v7.4219c0 0.52734 0.42578 0.95703 0.95703 0.95703h4.707v4.7148c0 0.52734 0.42578 0.95703 0.95703 0.95703h7.4219c0.52734 0 0.95703-0.42578 0.95703-0.95703v-4.7148h4.707c0.52734 0 0.95703-0.42578 0.95703-0.95703l-0.003906-7.4258c0-0.52734-0.42578-0.95312-0.95312-0.95312zm-0.95703 7.4219h-4.707c-0.52734 0-0.95703 0.42578-0.95703 0.95703l0.003906 4.7148h-5.5117v-4.7148c0-0.52734-0.42578-0.95703-0.95703-0.95703h-4.707v-5.5117h4.707c0.52734 0 0.95703-0.42578 0.95703-0.95703l-0.003906-4.707h5.5117v4.707c0 0.52734 0.42578 0.95703 0.95703 0.95703h4.707z"
     id="path112" />
  <path
     d="m60.23 49.398h-0.019531l-4.1875 0.082031-2.1367-4.4727c-0.15625-0.32422-0.47656-0.53516-0.83594-0.54297-0.35547-0.003906-0.69141 0.18359-0.86328 0.5l-4.7734 8.7734-4.2188-10.164c-0.14844-0.35156-0.48828-0.58594-0.87109-0.58984h-0.011719c-0.37891 0-0.72266 0.22266-0.875 0.57031l-2.6133 5.9375h-4.2734c-0.52734 0-0.95703 0.42578-0.95703 0.95703 0 0.52734 0.42578 0.95703 0.95703 0.95703h4.8945c0.37891 0 0.72266-0.22266 0.875-0.57031l1.9648-4.4609 4.1289 9.9453c0.14063 0.33984 0.46484 0.56641 0.83203 0.58594h0.050781c0.34766 0 0.67188-0.19141 0.83984-0.5l4.832-8.8867 1.5938 3.3398c0.16016 0.33203 0.49609 0.54297 0.86328 0.54297h0.019531l4.8047-0.09375c0.52734-0.011719 0.94531-0.44531 0.9375-0.97266-0.011719-0.51953-0.4375-0.9375-0.95703-0.9375z"
     id="path114" />
</svg>
