<?xml version="1.0" encoding="UTF-8"?>
<svg width="1200pt" height="1200pt" version="1.1" viewBox="0 0 1200 1200" xmlns="http://www.w3.org/2000/svg">
 <path d="m906 639c0 19.883-16.117 36-36 36s-36-16.117-36-36 16.117-36 36-36 36 16.117 36 36"/>
 <path d="m1042.6 600.32c4.6875-4.6875 4.6875-12.281 0-16.969l-195.83-195.83c-1.1055-1.1094-2.4336-1.9844-3.9023-2.5938-1.4648-0.60547-3.0195-0.92578-4.582-0.92578h-49.57l-170.55-170.55c-0.042968-0.042968-0.10547-0.054687-0.15234-0.10156-13.055-13.168-31.137-21.344-51.102-21.344-0.79297 0-1.5625 0.09375-2.3516 0.12109-0.20703-0.011719-0.38281-0.12109-0.58984-0.12109h-240c-31.105 0-57.59 19.863-67.633 47.543-0.050782 0.125-0.16016 0.20703-0.20703 0.33594l-65.73 175.92c-0.33594 0.89453-0.54688 1.8203-0.66406 2.75-0.003906 0.023438-0.015625 0.042969-0.015625 0.066407-0.16016 1.3672 0 2.7344 0.30859 4.0703 0.066406 0.28516 0.12109 0.55859 0.20703 0.83984 0.35938 1.1641 0.82812 2.293 1.5391 3.3203 0.097656 0.14062 0.23437 0.24219 0.33594 0.375 0.050781 0.066406 0.058594 0.14844 0.10938 0.21484l41.398 52.41c-45.715 20.762-77.648 66.754-77.648 120.15 0 34.766 13.398 67.578 37.73 92.402 4.6406 4.7227 12.23 4.7969 16.977 0.17188 4.7305-4.6406 4.8047-12.238 0.17188-16.977-19.918-20.309-30.879-47.156-30.879-75.598 0-59.547 48.453-108 108-108s108 48.453 108 108c0 28.441-10.961 55.289-30.871 75.598-4.6367 4.7344-4.5586 12.332 0.17188 16.977 2.3359 2.2852 5.3711 3.4258 8.3984 3.4258 3.1094 0 6.2148-1.2031 8.5742-3.5977 24.328-24.824 37.727-57.637 37.727-92.402 0-51.52-29.738-96.125-72.887-117.86l46.047-54.391c0.37109-0.44141 0.5-0.97656 0.80078-1.4492 0.45703-0.71875 0.91797-1.3984 1.2148-2.207s0.38281-1.6289 0.5-2.4727c0.074219-0.55469 0.32422-1.0508 0.32422-1.625v-84h155.25l144.75 144.75v45.492c0 3.4102 1.4531 6.4492 3.7344 8.6328l70.523 70.527-205.87 318.6h-108.39c-33.082 0-60 26.918-60 60v24c0 6.6289 5.3711 12 12 12h588c6.6289 0 12-5.3711 12-12v-72c0-6.6289-5.3711-12-12-12h-24v-253.05zm-172.64-39.316c43.008 0 78 34.992 78 78s-34.992 78-78 78-78-34.992-78-78 34.992-78 78-78zm-303.06-345c26.465 0 48 21.535 48 48s-21.535 48-48 48-48-21.535-48-48 21.535-48 48-48zm71.801 51.93 129.92 129.93-60.812 60.812-124.6-124.6c30.617-7.1289 53.73-33.809 55.488-66.137zm81.258 212.53 72.457-72.457h16.891l-89.348 89.344zm-396-264.46c26.465 0 48 21.535 48 48s-21.535 48-48 48-48-21.535-48-48 21.535-48 48-48zm-69.121 252-28.438-36h131.68l-30.48 36zm117.12-60h-153.04l41.32-110.59c12.062 22.91 36.082 38.586 63.723 38.586 3.0352 0 6.0078-0.25 8.9492-0.61719 0.99609 0.26953 1.9688 0.61719 3.0508 0.61719h36zm23.691-137.94c0.16797-2.0039 0.30859-4.0117 0.30859-6.0586 0-18.449-7.0352-35.246-18.484-48h135.91c-11.453 12.754-18.484 29.551-18.484 48s7.0352 35.246 18.484 48h-117.43v-40.422c0-0.53906-0.23828-1-0.30859-1.5195zm329.35 256.18 113.28-113.27 178.86 178.86-45.18 45.184v-1.0156c0-0.35547-0.17188-0.65625-0.20312-1.0039-2.125-54.379-46.902-97.996-101.8-97.996-35.539 0-66.855 18.297-85.121 45.938-0.085937 0.12109-0.21875 0.18359-0.30078 0.30859l-0.99609 1.543zm258.96 469.76h-564v-12c0-19.852 16.148-36 36-36h528zm-391.04-72 175.92-272.25c6.3086 50.234 49.199 89.246 101.12 89.246 31.273 0 59.273-14.176 78-36.406v219.41z"/>
</svg>
