<?xml version="1.0" encoding="UTF-8" standalone="no"?>
<svg
   xml:space="preserve"
   version="1.1"
   style="shape-rendering:geometricPrecision;text-rendering:geometricPrecision;image-rendering:optimizeQuality;"
   viewBox="0 0 1707 2133.75"
   x="0px"
   y="0px"
   fill-rule="evenodd"
   clip-rule="evenodd"
   id="svg40"
   sodipodi:docname="valores.svg"
   inkscape:version="1.2.2 (b0a8486541, 2022-12-01)"
   xmlns:inkscape="http://www.inkscape.org/namespaces/inkscape"
   xmlns:sodipodi="http://sodipodi.sourceforge.net/DTD/sodipodi-0.dtd"
   xmlns="http://www.w3.org/2000/svg"
   xmlns:svg="http://www.w3.org/2000/svg"><sodipodi:namedview
     id="namedview42"
     pagecolor="#ffffff"
     bordercolor="#000000"
     borderopacity="0.25"
     inkscape:showpageshadow="2"
     inkscape:pageopacity="0.0"
     inkscape:pagecheckerboard="0"
     inkscape:deskcolor="#d1d1d1"
     showgrid="false"
     inkscape:zoom="0.12419449"
     inkscape:cx="-1078.9528"
     inkscape:cy="519.34669"
     inkscape:window-width="1366"
     inkscape:window-height="696"
     inkscape:window-x="0"
     inkscape:window-y="29"
     inkscape:window-maximized="1"
     inkscape:current-layer="svg40" /><defs
     id="defs4"><style
       type="text/css"
       id="style2">
.fil0 { 
    fill:#0b5ed7;
}
   
  </style></defs><g
     id="g34"><g
       id="g32"><g
         id="g30"><g
           id="g8"><path
             class="fil0"
             d="M301 1566c-10,0 -20,-5 -23,-16 -4,-13 2,-27 16,-31 172,-61 263,-44 360,-25 158,31 337,65 966,-298 31,-18 38,-44 38,-62 0,-30 -16,-59 -41,-73 -15,-9 -42,-16 -74,3 -43,25 -82,49 -120,72 -282,168 -451,271 -845,79 -12,-5 -17,-20 -11,-32 5,-12 21,-16 32,-11 143,70 252,99 349,99 0,0 2,0 2,0 2,-2 5,-2 8,-2 0,0 1,0 1,0 27,0 42,-22 46,-43 2,-9 4,-41 -33,-54l-276 -88c-125,-41 -189,-10 -293,41 -27,13 -58,28 -93,43 -12,6 -26,0 -32,-12 -5,-13 0,-27 13,-32 33,-14 62,-28 90,-42 108,-51 186,-90 329,-44l277 87c56,18 74,67 67,108 -2,9 -4,18 -9,27 114,-24 218,-86 351,-167 39,-23 78,-47 122,-72 41,-23 85,-23 122,-3 41,24 67,68 67,116 0,43 -24,81 -64,105 -643,372 -832,336 -998,304 -91,-18 -177,-34 -336,23 -3,0 -6,0 -8,0z"
             id="path6"
             style="" /></g><g
           id="g12"><path
             class="fil0"
             d="M262 1605l-198 0c-37,0 -64,-28 -64,-64l0 -395c0,-36 29,-64 64,-64l198 0c35,0 64,29 64,64l0 395c-2,35 -29,64 -64,64zm-198 -474c-9,0 -16,7 -16,15l0 395c0,9 7,16 16,16l198 0c7,0 15,-7 15,-16l0 -395c0,-8 -7,-15 -15,-15l-198 0z"
             id="path10"
             style="" /></g><g
           id="g16"><path
             class="fil0"
             d="M163 1326c-41,0 -76,-34 -76,-76 0,-42 35,-76 76,-76 42,0 77,34 77,76 0,42 -35,76 -77,76zm0 -102c-15,0 -27,12 -27,27 0,16 12,28 27,28 16,0 28,-12 28,-28 0,-15 -12,-27 -28,-27z"
             id="path14"
             style="" /></g><g
           id="g20"><path
             class="fil0"
             d="M972 970c0,0 0,0 0,0 -4,0 -7,-1 -10,-3 -1,-1 -3,-1 -4,-3 -294,-216 -451,-466 -420,-665 14,-90 65,-158 143,-185 88,-30 192,-3 288,79 96,-82 201,-111 291,-79 78,28 132,96 146,187 31,200 -126,448 -417,663 -2,2 -3,2 -5,3 -4,3 -8,3 -12,3zm-219 -818c-20,0 -39,2 -57,9 -60,21 -100,74 -111,146 -10,68 -13,309 387,609 397,-298 394,-540 384,-606 -11,-74 -53,-128 -114,-149 -77,-27 -172,3 -258,84 -1,1 -4,2 -7,4l0 0 0 0c-2,1 -6,3 -11,3 0,0 0,0 0,0 0,0 0,0 0,0 -2,0 -7,-2 -9,-3 -3,-2 -5,-3 -7,-4 -64,-61 -133,-93 -197,-93z"
             id="path18"
             style="" /></g><g
           id="g24"><path
             class="fil0"
             d="M656 471c-11,0 -21,-9 -24,-20 -17,-84 2,-162 50,-209 42,-42 101,-57 165,-43 13,3 21,15 18,29 -3,12 -15,21 -29,18 -47,-11 -90,0 -121,29 -37,36 -50,97 -36,165 3,13 -5,26 -19,29 0,2 -3,2 -4,2z"
             id="path22"
             style="" /></g><g
           id="g28"><path
             class="fil0"
             d="M1051 797c-7,0 -14,-3 -18,-9 -8,-9 -8,-25 3,-34 76,-67 134,-135 170,-203 7,-11 21,-17 34,-10 12,7 16,21 9,34 -39,72 -100,144 -181,215 -6,5 -11,7 -17,7z"
             id="path26"
             style="" /></g></g></g></g></svg>
