<?xml version="1.0" encoding="UTF-8" standalone="no"?>
<svg
   version="1.1"
   viewBox="-5.0 -10.0 110.0 135.0"
   id="svg448"
   sodipodi:docname="noun-futuristic-eye-6973921.svg"
   inkscape:version="1.2.2 (b0a8486541, 2022-12-01)"
   xmlns:inkscape="http://www.inkscape.org/namespaces/inkscape"
   xmlns:sodipodi="http://sodipodi.sourceforge.net/DTD/sodipodi-0.dtd"
   xmlns="http://www.w3.org/2000/svg"
   xmlns:svg="http://www.w3.org/2000/svg">
  <defs
     id="defs452" />
  <sodipodi:namedview
     id="namedview450"
     pagecolor="#ffffff"
     bordercolor="#000000"
     borderopacity="0.25"
     inkscape:showpageshadow="2"
     inkscape:pageopacity="0.0"
     inkscape:pagecheckerboard="0"
     inkscape:deskcolor="#d1d1d1"
     showgrid="false"
     inkscape:zoom="3.9259259"
     inkscape:cx="55.018868"
     inkscape:cy="108.38208"
     inkscape:window-width="1366"
     inkscape:window-height="696"
     inkscape:window-x="0"
     inkscape:window-y="29"
     inkscape:window-maximized="1"
     inkscape:current-layer="svg448" />
  <g
     id="g442">
    <path
       d="m73.301 19h5.3984c0.71875 0 1.3008-0.57812 1.3008-1.3008v-5.3984c0-0.71875-0.57812-1.3008-1.3008-1.3008h-5.3984c-0.71875 0-1.3008 0.57812-1.3008 1.3008v5.3984c0 0.71875 0.57812 1.3008 1.3008 1.3008zm0.69922-6h4v4h-4z"
       id="path366" />
    <path
       d="m78.699 19.5h-5.3984c-0.98828 0-1.8008-0.80859-1.8008-1.8008v-5.3984c0-0.98828 0.80859-1.8008 1.8008-1.8008h5.3984c0.98828 0 1.8008 0.80859 1.8008 1.8008v5.3984c0 0.98828-0.80859 1.8008-1.8008 1.8008zm-5.3984-8c-0.44141 0-0.80078 0.35938-0.80078 0.80078v5.3984c0 0.44141 0.35938 0.80078 0.80078 0.80078h5.3984c0.44141 0 0.80078-0.35938 0.80078-0.80078v-5.3984c0-0.44141-0.35938-0.80078-0.80078-0.80078zm5.1992 6h-5v-5h5zm-4-1h3v-3h-3z"
       id="path368" />
    <path
       d="m87.301 14h3.3984c0.71875 0 1.3008-0.57812 1.3008-1.3008v-3.3984c0-0.71875-0.57812-1.3008-1.3008-1.3008h-3.3984c-0.71875 0-1.3008 0.57812-1.3008 1.3008v3.3984c0 0.71875 0.57812 1.3008 1.3008 1.3008zm0.69922-4h2v2h-2z"
       id="path370" />
    <path
       d="m90.699 14.5h-3.3984c-0.98828 0-1.8008-0.80859-1.8008-1.8008v-3.3984c0-0.98828 0.80859-1.8008 1.8008-1.8008h3.3984c0.98828 0 1.8008 0.80859 1.8008 1.8008v3.3984c0 0.98828-0.80859 1.8008-1.8008 1.8008zm-3.3984-6c-0.44141 0-0.80078 0.35938-0.80078 0.80078v3.3984c0 0.44141 0.35938 0.80078 0.80078 0.80078h3.3984c0.44141 0 0.80078-0.35938 0.80078-0.80078v-3.3984c0-0.44141-0.35938-0.80078-0.80078-0.80078zm3.1992 4h-3v-3h3zm-2-1h1v-1h-1z"
       id="path372" />
    <path
       d="m77 23.301v7.3984c0 0.71875 0.57812 1.3008 1.3008 1.3008h7.3984c0.71875 0 1.3008-0.57812 1.3008-1.3008v-7.3984c0-0.71875-0.57812-1.3008-1.3008-1.3008h-7.3984c-0.71875 0-1.3008 0.57812-1.3008 1.3008zm2 0.69922h6v6h-6z"
       id="path374" />
    <path
       d="m85.699 32.5h-7.3984c-0.98828 0-1.8008-0.80859-1.8008-1.8008v-7.3984c0-0.98828 0.80859-1.8008 1.8008-1.8008h7.3984c0.98828 0 1.8008 0.80859 1.8008 1.8008v7.3984c0 0.98828-0.80859 1.8008-1.8008 1.8008zm-7.3984-10c-0.44141 0-0.80078 0.35938-0.80078 0.80078v7.3984c0 0.44141 0.35938 0.80078 0.80078 0.80078h7.3984c0.44141 0 0.80078-0.35938 0.80078-0.80078v-7.3984c0-0.44141-0.35938-0.80078-0.80078-0.80078zm7.1992 8h-7v-7h7zm-6-1h5v-5h-5z"
       id="path376" />
    <path
       d="m62.301 21h3.3984c0.71875 0 1.3008-0.57812 1.3008-1.3008v-3.3984c0-0.71875-0.57812-1.3008-1.3008-1.3008h-3.3984c-0.71875 0-1.3008 0.57812-1.3008 1.3008v3.3984c0 0.71875 0.57812 1.3008 1.3008 1.3008zm0.69922-4h2v2h-2z"
       id="path378" />
    <path
       d="m65.699 21.5h-3.3984c-0.98828 0-1.8008-0.80859-1.8008-1.8008v-3.3984c0-0.98828 0.80859-1.8008 1.8008-1.8008h3.3984c0.98828 0 1.8008 0.80859 1.8008 1.8008v3.3984c0 0.98828-0.80859 1.8008-1.8008 1.8008zm-3.3984-6c-0.44141 0-0.80078 0.35938-0.80078 0.80078v3.3984c0 0.44141 0.35938 0.80078 0.80078 0.80078h3.3984c0.44141 0 0.80078-0.35938 0.80078-0.80078v-3.3984c0-0.44141-0.35938-0.80078-0.80078-0.80078zm3.1992 4h-3v-3h3zm-2-1h1v-1h-1z"
       id="path380" />
    <path
       d="m8.8281 10h20.738c0.55078 0 1-0.44922 1-1s-0.44922-1-1-1h-20.738c-0.55078 0-1 0.44922-1 1s0.44922 1 1 1z"
       id="path382" />
    <path
       d="m29.57 10.5h-20.742c-0.82812 0-1.5-0.67188-1.5-1.5s0.67188-1.5 1.5-1.5h20.738c0.82812 0 1.5 0.67188 1.5 1.5s-0.67188 1.5-1.5 1.5zm-20.742-2c-0.28125 0-0.5 0.21875-0.5 0.5s0.21875 0.5 0.5 0.5h20.738c0.28125 0 0.5-0.21875 0.5-0.5s-0.21875-0.5-0.5-0.5z"
       id="path384" />
    <path
       d="m8.8281 14.781h20.738c0.55078 0 1-0.44922 1-1s-0.44922-1-1-1h-20.738c-0.55078 0-1 0.44922-1 1s0.44922 1 1 1z"
       id="path386" />
    <path
       d="m29.57 15.281h-20.742c-0.82812 0-1.5-0.67188-1.5-1.5s0.67188-1.5 1.5-1.5h20.738c0.82812 0 1.5 0.67188 1.5 1.5s-0.67188 1.5-1.5 1.5zm-20.742-2c-0.28125 0-0.5 0.21875-0.5 0.5s0.21875 0.5 0.5 0.5h20.738c0.28125 0 0.5-0.21875 0.5-0.5s-0.21875-0.5-0.5-0.5z"
       id="path388" />
    <path
       d="m8.8281 19h16.172c0.55078 0 1-0.44922 1-1s-0.44922-1-1-1h-16.172c-0.55078 0-1 0.44922-1 1s0.44922 1 1 1z"
       id="path390" />
    <path
       d="m25 19.5h-16.172c-0.82812 0-1.5-0.67188-1.5-1.5s0.67188-1.5 1.5-1.5h16.172c0.82812 0 1.5 0.67188 1.5 1.5s-0.67188 1.5-1.5 1.5zm-16.172-2c-0.28125 0-0.5 0.21875-0.5 0.5s0.21875 0.5 0.5 0.5h16.172c0.28125 0 0.5-0.21875 0.5-0.5s-0.21875-0.5-0.5-0.5z"
       id="path392" />
    <path
       d="m29.57 22h-8.7383c-0.55078 0-1 0.44922-1 1s0.44922 1 1 1h8.3281l2.4219 2.4219c0.19922 0.19922 0.44922 0.28906 0.71094 0.28906s0.51172-0.10156 0.71094-0.28906c0.39062-0.39062 0.39062-1.0195 0-1.4102l-2.7188-2.7188c-0.19141-0.19141-0.44141-0.28906-0.71094-0.28906z"
       id="path394" />
    <path
       d="m32.281 27.219c-0.39844 0-0.78125-0.16016-1.0586-0.44141l-2.2812-2.2812h-8.1211c-0.82812 0-1.5-0.67188-1.5-1.5s0.67188-1.5 1.5-1.5h8.7383c0.39844 0 0.78125 0.16016 1.0586 0.44141l2.7188 2.7188c0.57812 0.57812 0.57812 1.5391 0 2.1211-0.28125 0.28125-0.66016 0.44141-1.0586 0.44141zm-11.453-4.7188c-0.28125 0-0.5 0.21875-0.5 0.5s0.21875 0.5 0.5 0.5h8.5312l2.5703 2.5703c0.19141 0.19141 0.51953 0.19141 0.71094 0 0.19141-0.19141 0.19141-0.51172 0-0.71094l-2.7188-2.7188c-0.089844-0.089844-0.21875-0.14844-0.35156-0.14844h-8.7383z"
       id="path396" />
    <path
       d="m8.8281 24h5.7383c0.55078 0 1-0.44922 1-1s-0.44922-1-1-1h-5.7383c-0.55078 0-1 0.44922-1 1s0.44922 1 1 1z"
       id="path398" />
    <path
       d="m14.57 24.5h-5.7383c-0.82812 0-1.5-0.67188-1.5-1.5s0.67188-1.5 1.5-1.5h5.7383c0.82813 0 1.5 0.67188 1.5 1.5s-0.67187 1.5-1.5 1.5zm-5.7422-2c-0.28125 0-0.5 0.21875-0.5 0.5s0.21875 0.5 0.5 0.5h5.7383c0.28125 0 0.5-0.21875 0.5-0.5s-0.21875-0.5-0.5-0.5z"
       id="path400" />
    <path
       d="m26.52 81h-5.3906c-0.71875 0-1.3008 0.57812-1.3008 1.3008v5.3984c0 0.71875 0.57812 1.3008 1.3008 1.3008h5.3906c0.71875 0 1.3086-0.57812 1.3086-1.3008v-5.3984c0-0.71875-0.58984-1.3008-1.3086-1.3008zm-0.69141 6h-4v-4h4z"
       id="path402" />
    <path
       d="m26.52 89.5h-5.3906c-0.98828 0-1.8008-0.80859-1.8008-1.8008v-5.3984c0-0.98828 0.80859-1.8008 1.8008-1.8008h5.3906c1 0 1.8086 0.80859 1.8086 1.8008v5.3984c0 0.98828-0.80859 1.8008-1.8086 1.8008zm-5.3906-8c-0.44141 0-0.80078 0.35938-0.80078 0.80078v5.3984c0 0.44141 0.35938 0.80078 0.80078 0.80078h5.3906c0.44922 0 0.80859-0.35938 0.80859-0.80078v-5.3984c0-0.44141-0.35938-0.80078-0.80859-0.80078zm5.1992 6h-5v-5h5zm-4-1h3v-3h-3z"
       id="path404" />
    <path
       d="m12.52 86h-3.3906c-0.71875 0-1.3008 0.57812-1.3008 1.3008v3.3984c0 0.71875 0.57812 1.3008 1.3008 1.3008h3.3906c0.71875 0 1.3086-0.57812 1.3086-1.3008v-3.3984c0-0.71875-0.58984-1.3008-1.3086-1.3008zm-0.69141 4h-2v-2h2z"
       id="path406" />
    <path
       d="m12.52 92.5h-3.3906c-0.98828 0-1.8008-0.80859-1.8008-1.8008v-3.3984c0-0.98828 0.80859-1.8008 1.8008-1.8008h3.3906c1 0 1.8086 0.80859 1.8086 1.8008v3.3984c0 0.98828-0.80859 1.8008-1.8086 1.8008zm-3.3906-6c-0.44141 0-0.80078 0.35938-0.80078 0.80078v3.3984c0 0.44141 0.35938 0.80078 0.80078 0.80078h3.3906c0.44922 0 0.80859-0.35938 0.80859-0.80078v-3.3984c0-0.44141-0.35938-0.80078-0.80859-0.80078zm3.1992 4h-3v-3h3zm-2-1h1v-1h-1z"
       id="path408" />
    <path
       d="m22.828 76.699v-7.3984c0-0.71875-0.58984-1.3008-1.3086-1.3008h-7.3906c-0.71875 0-1.3008 0.57812-1.3008 1.3008v7.3984c0 0.71875 0.57812 1.3008 1.3008 1.3008h7.3906c0.71875 0 1.3086-0.57812 1.3086-1.3008zm-2-0.69922h-6v-6h6z"
       id="path410" />
    <path
       d="m21.52 78.5h-7.3906c-0.98828 0-1.8008-0.80859-1.8008-1.8008v-7.3984c0-0.98828 0.80859-1.8008 1.8008-1.8008h7.3906c1 0 1.8086 0.80859 1.8086 1.8008v7.3984c0 0.98828-0.80859 1.8008-1.8086 1.8008zm-7.3906-10c-0.44141 0-0.80078 0.35938-0.80078 0.80078v7.3984c0 0.44141 0.35938 0.80078 0.80078 0.80078h7.3906c0.44922 0 0.80859-0.35938 0.80859-0.80078v-7.3984c0-0.44141-0.35938-0.80078-0.80859-0.80078zm7.1992 8h-7v-7h7zm-6-1h5v-5h-5z"
       id="path412" />
    <path
       d="m37.52 79h-3.3906c-0.71875 0-1.3008 0.57812-1.3008 1.3008v3.3984c0 0.71875 0.57812 1.3008 1.3008 1.3008h3.3906c0.71875 0 1.3086-0.57812 1.3086-1.3008v-3.3984c0-0.71875-0.58984-1.3008-1.3086-1.3008zm-0.69141 4h-2v-2h2z"
       id="path414" />
    <path
       d="m37.52 85.5h-3.3906c-0.98828 0-1.8008-0.80859-1.8008-1.8008v-3.3984c0-0.98828 0.80859-1.8008 1.8008-1.8008h3.3906c1 0 1.8086 0.80859 1.8086 1.8008v3.3984c0 0.98828-0.80859 1.8008-1.8086 1.8008zm-3.3906-6c-0.44141 0-0.80078 0.35938-0.80078 0.80078v3.3984c0 0.44141 0.35938 0.80078 0.80078 0.80078h3.3906c0.44922 0 0.80859-0.35938 0.80859-0.80078v-3.3984c0-0.44141-0.35938-0.80078-0.80859-0.80078zm3.1992 4h-3v-3h3zm-2-1h1v-1h-1z"
       id="path416" />
    <path
       d="m91 81h-20.738c-0.55078 0-1 0.44922-1 1s0.44922 1 1 1h20.738c0.55078 0 1-0.44922 1-1s-0.44922-1-1-1z"
       id="path418" />
    <path
       d="m91 83.5h-20.738c-0.82812 0-1.5-0.67188-1.5-1.5s0.67188-1.5 1.5-1.5h20.738c0.82812 0 1.5 0.67188 1.5 1.5s-0.67188 1.5-1.5 1.5zm-20.738-2c-0.28125 0-0.5 0.21875-0.5 0.5s0.21875 0.5 0.5 0.5h20.738c0.28125 0 0.5-0.21875 0.5-0.5s-0.21875-0.5-0.5-0.5z"
       id="path420" />
    <path
       d="m91 85.219h-20.738c-0.55078 0-1 0.44922-1 1s0.44922 1 1 1h20.738c0.55078 0 1-0.44922 1-1s-0.44922-1-1-1z"
       id="path422" />
    <path
       d="m91 87.719h-20.738c-0.82812 0-1.5-0.67188-1.5-1.5s0.67188-1.5 1.5-1.5h20.738c0.82812 0 1.5 0.67188 1.5 1.5s-0.67188 1.5-1.5 1.5zm-20.738-2c-0.28125 0-0.5 0.21875-0.5 0.5s0.21875 0.5 0.5 0.5h20.738c0.28125 0 0.5-0.21875 0.5-0.5s-0.21875-0.5-0.5-0.5z"
       id="path424" />
    <path
       d="m82.43 89.609h-12.172c-0.55078 0-1 0.44922-1 1s0.44922 1 1 1h12.172c0.55078 0 1-0.44922 1-1s-0.44922-1-1-1z"
       id="path426" />
    <path
       d="m82.43 92.109h-12.172c-0.82812 0-1.5-0.67188-1.5-1.5s0.67188-1.5 1.5-1.5h12.172c0.82812 0 1.5 0.67188 1.5 1.5s-0.67188 1.5-1.5 1.5zm-12.168-2c-0.28125 0-0.5 0.21875-0.5 0.5s0.21875 0.5 0.5 0.5h12.172c0.28125 0 0.5-0.21875 0.5-0.5s-0.21875-0.5-0.5-0.5z"
       id="path428" />
    <path
       d="m91 76h-20.328l-2.4219-2.4219c-0.39062-0.39062-1.0195-0.39062-1.4102 0s-0.39062 1.0195 0 1.4102l2.7188 2.7188c0.19141 0.19141 0.44141 0.28906 0.71094 0.28906h20.738c0.55078 0 1-0.44922 1-1 0-0.55078-0.44922-1-1-1z"
       id="path430" />
    <path
       d="m91 78.5h-20.738c-0.39844 0-0.78125-0.16016-1.0586-0.44141l-2.7188-2.7188c-0.57812-0.57812-0.57812-1.5391 0-2.1211 0.57812-0.57812 1.5391-0.57812 2.1211 0l2.2812 2.2812h20.121c0.82813 0 1.5 0.67188 1.5 1.5s-0.67187 1.5-1.5 1.5zm-23.461-4.7188c-0.12891 0-0.26172 0.050781-0.35156 0.14844-0.19922 0.19922-0.19922 0.51172 0 0.71094l2.7188 2.7188c0.089844 0.089844 0.21875 0.14844 0.35156 0.14844h20.738c0.28125 0 0.5-0.21875 0.5-0.5s-0.21875-0.5-0.5-0.5h-20.531l-2.5703-2.5703c-0.10156-0.10156-0.23047-0.14844-0.35156-0.14844z"
       id="path432" />
    <path
       d="m44 50c0 3.3086 2.6914 6 6 6s6-2.6914 6-6-2.6914-6-6-6-6 2.6914-6 6zm10 0c0 2.2109-1.7891 4-4 4s-4-1.7891-4-4 1.7891-4 4-4 4 1.7891 4 4z"
       id="path434" />
    <path
       d="m50 56.5c-3.5781 0-6.5-2.9219-6.5-6.5s2.9219-6.5 6.5-6.5 6.5 2.9219 6.5 6.5-2.9219 6.5-6.5 6.5zm0-12c-3.0312 0-5.5 2.4688-5.5 5.5s2.4688 5.5 5.5 5.5 5.5-2.4688 5.5-5.5-2.4688-5.5-5.5-5.5zm0 10c-2.4805 0-4.5-2.0195-4.5-4.5s2.0195-4.5 4.5-4.5 4.5 2.0195 4.5 4.5-2.0195 4.5-4.5 4.5zm0-8c-1.9297 0-3.5 1.5703-3.5 3.5s1.5703 3.5 3.5 3.5 3.5-1.5703 3.5-3.5-1.5703-3.5-3.5-3.5z"
       id="path436" />
    <path
       d="m92.051 49.871c-8.8789-11.488-18.27-19.191-27.91-22.871-0.019531 0-0.039063-0.019531-0.058594-0.019531-4.9297-1.8711-9.9883-2.7188-15.012-2.5195-1.4102 0.050781-2.8789 0.19141-4.3516 0.41016-3.3516 0.53125-6.7305 1.5117-10.051 2.9219-16.078 6.8281-26.359 21.512-26.789 22.129-0.25 0.37109-0.23047 0.85938 0.050782 1.2109 3.0312 3.6602 6.1289 6.9492 9.2188 9.7891 0.41016 0.37891 1.0391 0.35156 1.4102-0.058594 0.37109-0.41016 0.35156-1.0391-0.058594-1.4102-2.8594-2.6211-5.7305-5.6484-8.5391-9 1.9414-2.6016 10.109-12.879 21.91-19.102-3.8711 3.7617-6.5586 8.7109-7.5 14.238-0.058594 0.39062 0.10938 0.78125 0.44141 1 0.32031 0.21875 0.75 0.23047 1.0781 0.019531 1.1914-0.75 2.8281-0.78906 4.0898-0.070313 1.2383 0.71094 2.0117 2.0391 2.0117 3.4688 0 1.4297-0.76953 2.7617-2.0195 3.4688-1.25 0.71875-2.8906 0.67969-4.0781-0.058593-0.32812-0.21875-0.76172-0.21094-1.0781 0.011719-0.32812 0.21875-0.5 0.60937-0.44141 1 1.0117 5.9102 3.9883 11.148 8.3086 14.988-2.5898-1.2812-5.1797-2.8398-7.7305-4.6914-0.44922-0.32031-1.0703-0.21875-1.3984 0.23047-0.32031 0.44922-0.21875 1.0703 0.23047 1.3984 3.9414 2.8398 7.9688 5.0703 11.98 6.6016 0.03125 0.019531 0.070313 0.03125 0.10156 0.039063 2.3281 0.89062 4.6914 1.5703 7.0117 2.0195 2.2109 0.42969 4.4414 0.67188 6.6211 0.69922h0.76953c4.3398 0 8.7109-0.76172 13.012-2.25 17.41-6.0117 28.352-21.75 28.809-22.422 0.25-0.35938 0.23047-0.82812-0.03125-1.1797zm-58.051 0.12891c0-1.8789-0.89062-3.6484-2.3594-4.7695 1.2812-5.0117 4.5312-9.2188 9.0508-11.762l2.6211 2.6289v3.9414c-3.1992 2.1602-5.3086 5.8203-5.3086 9.9609s2.1094 7.8008 5.3086 9.9609v4.5391l-2.2617 2.2617c-4.6484-2.5-8.1211-6.8984-9.4297-11.98 1.4805-1.1211 2.3789-2.8906 2.3789-4.7812zm26 0c0 5.5117-4.4883 10-10 10s-10-4.4883-10-10 4.4883-10 10-10 10 4.4883 10 10zm-9-11.949v-7.0195c2.2383 0.10938 4.3906 0.60938 6.4414 1.4883l-2.4609 2.4609c-0.19141 0.19141-0.30078 0.44141-0.30078 0.69922v3.2695c-1.1406-0.48828-2.3789-0.78906-3.6797-0.89844zm3.9883 27.66 1.9688 1.9688c-1.8789 0.73828-3.8906 1.1797-5.9609 1.2891v-7.0195c1.3008-0.10938 2.5508-0.42188 3.6992-0.91016v3.9609c0 0.26953 0.10156 0.51953 0.28906 0.71094zm-5.9883-3.7617v7.0195c-2.0703-0.10156-4.0898-0.55078-6.0117-1.3086l2.0312-2.0391c0.19141-0.19141 0.28906-0.44141 0.28906-0.71094v-3.8594c1.1484 0.48828 2.3906 0.78906 3.6914 0.89844zm0-23.898c-1.3008 0.10938-2.5391 0.41016-3.6914 0.89844v-3.2617c0-0.26953-0.10156-0.51953-0.28906-0.71094l-2.4609-2.4609c2.0391-0.87891 4.1992-1.3789 6.4414-1.4883zm-5.75 35c-0.17969-0.03125-0.35938-0.078125-0.53906-0.12109-0.089844-0.058594-0.17969-0.12891-0.28906-0.16016-7.8398-2.5898-13.711-8.9805-15.691-16.898 1 0.21094 2.0703 0.14844 3.0586-0.16016 1.6016 5.6914 5.6484 10.559 11.02 13.18 0.011718 0 0.03125 0.019531 0.050781 0.03125 2.8906 1.3789 5.9609 2.0781 9.1406 2.0781 6.2695 0 12.172-2.7695 16.172-7.6016 0.35156-0.42188 0.28906-1.0508-0.12891-1.3984-0.42969-0.35938-1.0586-0.30078-1.4102 0.12891-1.6094 1.9414-3.5586 3.5117-5.7305 4.6602l-2.1992-2.1992v-4.6406c3.1914-2.1602 5.3008-5.8086 5.3008-9.9492s-2.1094-7.8008-5.3203-9.9609v-3.9414l2.6484-2.6406c4.6914 2.6484 8.1016 7.2383 9.2305 12.5-0.23047 0.26172-0.42969 0.53125-0.60938 0.80859-0.019531 0.039063-0.050781 0.078125-0.078125 0.12891-0.16016 0.26953-0.30859 0.55859-0.42969 0.85156-0.019531 0.058594-0.039062 0.10938-0.058593 0.17188-0.10938 0.30078-0.19922 0.60938-0.26172 0.92188-0.011719 0.050781-0.019531 0.089844-0.019531 0.14062-0.058594 0.33984-0.10156 0.67969-0.10156 1.0195s0.039063 0.69141 0.10156 1.0195c0 0.050781 0.011719 0.089844 0.019531 0.14062 0.058594 0.30859 0.14844 0.62109 0.26172 0.92188 0.019531 0.058594 0.039062 0.10938 0.058593 0.16016 0.12109 0.30078 0.26953 0.58984 0.42969 0.85937 0.03125 0.050782 0.058594 0.089844 0.078125 0.12891 0.17969 0.28125 0.37891 0.55078 0.60938 0.80078-0.19141 0.89062-0.44141 1.7695-0.76172 2.6211-0.19141 0.51172 0.070313 1.0898 0.58984 1.2812 0.12109 0.050781 0.23047 0.070312 0.35156 0.070312 0.41016 0 0.78906-0.25 0.94141-0.66016 0.23828-0.66016 0.44141-1.3281 0.62109-2.0195 0.91016 0.46094 1.9219 0.71094 2.9414 0.67969-2.2188 8.6211-9.1211 15.238-17.609 17.301-2.0391 0.30859-4.0781 0.44922-6.1094 0.41016-2.0703-0.03125-4.1797-0.25-6.2695-0.66016zm23.34-3.0703c4.5117-3.7383 7.7695-8.9883 8.9297-15.031 0.070313-0.35156-0.050781-0.71094-0.32031-0.94141-0.26172-0.23047-0.64062-0.30859-0.96875-0.19922-1.2891 0.42188-2.8398 0.12109-3.9102-0.83984-0.83984-0.76172-1.3203-1.8398-1.3203-2.9688 0-0.28125 0.03125-0.55859 0.089844-0.82812 0.17188-0.82031 0.60156-1.5703 1.2305-2.1406 1.0703-0.96094 2.6211-1.2617 3.9102-0.83984 0.32812 0.10938 0.71094 0.039063 0.96875-0.19922 0.26953-0.23047 0.39062-0.58984 0.32031-0.94141-0.42969-2.25-1.1602-4.4297-2.1719-6.4883-0.23828-0.5-0.83984-0.69922-1.3398-0.46094-0.48828 0.23828-0.69922 0.83984-0.44922 1.3398 0.71094 1.4609 1.2812 2.9883 1.6797 4.5586-1.0195-0.03125-2.0312 0.21875-2.9297 0.67188-1.5-5.6992-5.4219-10.621-10.699-13.34-0.03125 0-0.050781-0.019531-0.078125-0.039062-2.9688-1.5195-6.1719-2.2891-9.5312-2.2891s-6.5703 0.76953-9.5312 2.2891c0 0-0.050781 0.03125-0.078125 0.039062-5.2188 2.6797-9.0312 7.3594-10.602 12.961-0.98828-0.30078-2.0586-0.37109-3.0586-0.16016 1.8789-7.5195 7.3203-13.66 14.488-16.469 1.2695-0.33984 2.5508-0.62109 3.8203-0.82812 1.3906-0.21094 2.7812-0.33984 4.1211-0.39063 2.6797-0.10156 5.3789 0.12109 8.0508 0.64063 3.7891 1.1797 7.2383 3.3008 10.078 6.25 0.19922 0.21094 0.46094 0.30859 0.71875 0.30859 0.26172 0 0.5-0.089843 0.69922-0.28125 0.39062-0.37891 0.39844-1.0195 0.019531-1.4102-0.46875-0.48828-0.96094-0.94922-1.4609-1.3906 7.7891 3.9102 15.43 10.59 22.75 19.93-1.9688 2.6484-10.641 13.629-23.422 19.48z"
       id="path438" />
    <path
       d="m50.262 76.219h-0.78125c-2.2109-0.03125-4.4688-0.26953-6.7109-0.71094-2.3398-0.44922-4.7305-1.1406-7.0898-2.0391l-0.41016-0.16016c-3.9219-1.5391-7.8984-3.75-11.781-6.5508-0.32812-0.23047-0.53906-0.57812-0.60156-0.98047-0.058594-0.39844 0.03125-0.78906 0.26953-1.1211 0.23047-0.32812 0.57812-0.53906 0.98047-0.60156 0.39844-0.058594 0.78906 0.03125 1.1211 0.26953 1.5586 1.1289 3.1602 2.1602 4.7617 3.0898-3.1602-3.6406-5.3008-8.1094-6.1211-12.898-0.089844-0.58984 0.17187-1.1797 0.66016-1.5 0.48828-0.33984 1.1406-0.33984 1.6289 0 1.0391 0.64062 2.4688 0.67188 3.5508 0.039063 1.0898-0.62109 1.7695-1.7812 1.7695-3.0391 0-1.2617-0.67187-2.4219-1.7617-3.0391-1.0898-0.62109-2.5312-0.60156-3.5781 0.058594-0.5 0.32031-1.1406 0.30859-1.6289-0.03125-0.48047-0.32031-0.73828-0.91016-0.64844-1.4883 0.76953-4.5117 2.6484-8.6602 5.5-12.172-9.9492 6.0391-16.91 14.648-18.781 17.09 2.7188 3.2109 5.4883 6.1211 8.2383 8.6484 0.60938 0.55859 0.64844 1.5117 0.089844 2.1211-0.26953 0.28906-0.64062 0.46875-1.0391 0.48047-0.39844 0.011718-0.78125-0.12109-1.0781-0.39062-3.1094-2.8594-6.2305-6.1719-9.2695-9.8398-0.42969-0.51953-0.46094-1.2617-0.078125-1.8086 0.42969-0.62891 10.789-15.41 27.012-22.309 3.3594-1.4219 6.7891-2.4102 10.172-2.9492 1.5-0.23047 2.9805-0.37109 4.4102-0.42188 5.0898-0.19922 10.211 0.66016 15.199 2.5586 9.7812 3.7383 19.238 11.488 28.18 23.059 0.39844 0.51953 0.42188 1.2305 0.050782 1.7617-0.46094 0.67188-11.469 16.539-29.059 22.609-4.3516 1.5117-8.7812 2.2812-13.18 2.2812zm-13.91-3.5703c2.1992 0.82031 4.4219 1.4492 6.6094 1.8789 2.1797 0.42969 4.3789 0.66016 6.5312 0.69141 4.5586 0.089844 9.1211-0.64844 13.621-2.2188 17.281-5.9609 28.109-21.57 28.559-22.23 0.12109-0.17969 0.12109-0.42188-0.019531-0.58984-8.8281-11.422-18.141-19.059-27.691-22.711-4.9297-1.8711-9.9219-2.7109-14.871-2.5195-1.3984 0.050781-2.8398 0.19141-4.3008 0.41016-3.3008 0.53125-6.6484 1.5-9.9414 2.8789-15.949 6.7812-26.148 21.34-26.57 21.961-0.12891 0.17969-0.12109 0.42969 0.03125 0.60156 3.0117 3.6406 6.1016 6.9219 9.1797 9.7383 0.10156 0.089844 0.23047 0.14844 0.35938 0.12891 0.12891 0 0.26172-0.058594 0.35156-0.16016 0.19141-0.19922 0.17188-0.51953-0.03125-0.71094-2.8711-2.6406-5.7617-5.6797-8.5781-9.0391l-0.25-0.30078 0.23828-0.32031c2.1992-2.9414 10.27-13.02 22.078-19.238l3.0703-1.6211-2.4883 2.4219c-3.8984 3.8008-6.4492 8.6211-7.3594 13.969-0.03125 0.19141 0.058594 0.39062 0.21875 0.5s0.37891 0.10938 0.53125 0.011719c1.3516-0.85156 3.1992-0.87891 4.6094-0.078126 1.3984 0.80078 2.2617 2.3008 2.2617 3.8984 0 1.6016-0.87109 3.1094-2.2695 3.8984-1.3906 0.80078-3.2383 0.76953-4.5898-0.070313-0.17188-0.10938-0.37891-0.10938-0.53125 0-0.17188 0.10938-0.26172 0.30859-0.23047 0.51172 0.96875 5.6602 3.8594 10.879 8.1406 14.691l2.7617 2.4609-3.3203-1.6406c-2.6289-1.3008-5.2617-2.8906-7.8008-4.7305-0.10938-0.078125-0.23828-0.10938-0.37109-0.089844-0.12891 0.019531-0.25 0.089844-0.32812 0.19922-0.078126 0.10938-0.10938 0.23828-0.089844 0.37109 0.019531 0.12891 0.089844 0.25 0.19922 0.32813 3.8984 2.8203 7.8984 5.0195 11.871 6.5391l0.41016 0.17188zm13.84 1.5703h-0.67969c-2.0898-0.03125-4.2305-0.25-6.3594-0.67188l-0.75-0.21094s-0.10156-0.070313-0.14062-0.089844c-7.9883-2.6406-13.98-9.0898-16.02-17.25l-0.19141-0.76953 0.78125 0.16016c0.91016 0.19141 1.8906 0.14062 2.8086-0.14844l0.48828-0.14844 0.14062 0.5c1.5781 5.6094 5.5 10.301 10.762 12.871l0.089844 0.050781c2.8086 1.3281 5.8008 2.0117 8.8789 2.0117 6.1289 0 11.879-2.6992 15.789-7.4219 0.078126-0.10156 0.12109-0.23047 0.10938-0.35937-0.011719-0.12891-0.070313-0.25-0.17969-0.33984s-0.25-0.12891-0.37109-0.12109c-0.12891 0.011719-0.25 0.078125-0.32812 0.17969-1.6406 1.9805-3.6211 3.5781-5.8789 4.7891l-0.32812 0.17188-2.6094-2.6094v-5.1094l0.21875-0.14844c3.1797-2.1484 5.0781-5.7188 5.0781-9.5391s-1.9102-7.3984-5.1016-9.5391l-0.21875-0.14844v-4.4102l3.0703-3.0508 0.32812 0.19141c4.8594 2.75 8.3086 7.4219 9.4688 12.828v0.30078l-0.12109 0.14844c-0.19141 0.21094-0.37891 0.44922-0.55859 0.73047l-0.5-0.14062 0.42969 0.25c-0.16016 0.26953-0.28906 0.53906-0.39844 0.78906l-0.050782 0.14844c-0.10938 0.28906-0.19141 0.57031-0.23828 0.83984l-0.019531 0.12891c-0.058594 0.35156-0.089844 0.66016-0.089844 0.92969s0.03125 0.58984 0.089844 0.92969l-0.48047 0.19922 0.48828-0.10156c0.058594 0.30859 0.14062 0.58984 0.23828 0.87891l0.050781 0.14062c0.10156 0.25 0.23047 0.51953 0.39844 0.78906 0.050782 0.078125 0.078125 0.12109 0.10156 0.16016 0.16016 0.23828 0.33984 0.48047 0.53125 0.69141l0.12891 0.14062v0.30859c-0.21094 0.94141-0.48047 1.8398-0.78906 2.6797-0.039062 0.12109-0.039062 0.26172 0.019532 0.37891 0.058594 0.12109 0.14844 0.21094 0.28125 0.26172 0.35156 0.14062 0.55859-0.03125 0.64844-0.28906 0.21875-0.60156 0.42188-1.2383 0.60938-1.9688l0.16016-0.60156 0.55078 0.28125c0.85938 0.44141 1.8008 0.66016 2.6992 0.62891l0.67188-0.019531-0.17188 0.64062c-2.25 8.75-9.1406 15.512-17.98 17.66-1.8984 0.28906-3.75 0.42969-5.5586 0.42969zm-7.2812-1.7578 0.42969 0.089843c2.0703 0.39844 4.1484 0.62109 6.1914 0.64844 1.9688 0.03125 3.9883-0.10156 6.0312-0.39844 8.2188-2 14.711-8.2305 17.031-16.328-0.66016-0.050781-1.3203-0.21094-1.9609-0.46875-0.14844 0.53906-0.30859 1.0312-0.48047 1.4883-0.28906 0.78906-1.1992 1.1992-1.9492 0.87891-0.35156-0.12891-0.64844-0.39844-0.82031-0.76953-0.17187-0.35937-0.19141-0.76953-0.050781-1.1484 0.26953-0.71875 0.5-1.5 0.69141-2.3086-0.17188-0.19922-0.32813-0.42188-0.48828-0.67188l-0.089844-0.14844c-0.19141-0.32031-0.35156-0.62891-0.46094-0.92969-0.019531-0.050781-0.039063-0.10938-0.070313-0.17969-0.12109-0.32812-0.21875-0.66016-0.28125-0.98828-0.011718-0.070312-0.03125-0.14062-0.03125-0.23828-0.058593-0.30859-0.10156-0.67188-0.10156-1.0195 0-0.35156 0.039062-0.69922 0.10938-1.1094 0 0 0-0.070313 0.019531-0.12891 0.070313-0.35156 0.16016-0.67969 0.28906-1.0195l0.070312-0.19141c0.12109-0.28906 0.28125-0.60156 0.46094-0.92188l0.5 0.14062-0.44141-0.23828c0.17969-0.28125 0.35156-0.51172 0.51953-0.71875-1.1016-4.8516-4.2188-9.1289-8.6211-11.738l-2.2305 2.2188v3.4688c3.3398 2.3516 5.3203 6.1484 5.3203 10.219 0 4.0703-1.9805 7.8594-5.3008 10.211v4.1719l1.7891 1.7891c2.0117-1.1211 3.7812-2.5781 5.25-4.3594 0.25-0.30859 0.60938-0.5 1.0117-0.53906 0.39844-0.039062 0.78906 0.078125 1.1016 0.35156 0.62891 0.53125 0.71875 1.4688 0.19141 2.1016-4.0898 4.9414-10.129 7.7812-16.551 7.7812-3.25 0-6.3984-0.71875-9.3594-2.1289l-0.10938-0.058594c-5.3398-2.6211-9.3594-7.3398-11.09-12.988-0.67188 0.16016-1.3594 0.21094-2.0391 0.14844 2.1211 7.4883 7.7383 13.371 15.172 15.82 0.12891 0.039062 0.23828 0.10938 0.33984 0.17188zm20.449-0.44922 2.9102-2.4102c4.5508-3.7695 7.6602-9.0117 8.7617-14.738 0.039062-0.17969-0.019531-0.35938-0.14844-0.46875-0.12891-0.12109-0.32812-0.16016-0.48828-0.10938-1.4883 0.48828-3.2188 0.12109-4.3984-0.94141-0.94922-0.85156-1.4883-2.0703-1.4883-3.3398 0-0.32031 0.03125-0.62891 0.10156-0.94141 0.19141-0.92188 0.67188-1.7617 1.3789-2.3984 1.1797-1.0586 2.9102-1.4297 4.3984-0.94141 0.17188 0.058594 0.35938 0.019532 0.48047-0.089844 0.14062-0.12109 0.19922-0.30078 0.17187-0.46875-0.42187-2.2109-1.1406-4.3516-2.1289-6.3711-0.058594-0.12109-0.16016-0.21094-0.28125-0.25-0.12891-0.039063-0.26953-0.039063-0.39062 0.019531-0.12109 0.058594-0.19922 0.16016-0.25 0.28125-0.039062 0.12891-0.03125 0.26172 0.03125 0.37891 0.73828 1.5195 1.3203 3.0898 1.7188 4.6602l0.16016 0.64063-0.66016-0.019532c-0.87891-0.03125-1.8281 0.19141-2.6914 0.62109l-0.55078 0.28125-0.16016-0.60156c-1.4805-5.6211-5.2891-10.359-10.441-13.02l-0.12891-0.070312c-2.8398-1.4492-5.9688-2.1992-9.25-2.1992s-6.2188 0.71094-9.0312 2.1016v0.050781l-0.33984 0.12891c-5.0586 2.5898-8.8281 7.1992-10.359 12.648l-0.14062 0.48828-0.48828-0.14844c-0.94141-0.28906-1.9219-0.33984-2.8086-0.14844l-0.78125 0.16016 0.19141-0.76953c1.9102-7.6484 7.4414-13.93 14.789-16.809 1.4805-0.39062 2.75-0.67188 3.9219-0.85156 1.4219-0.21875 2.8203-0.35156 4.1797-0.39844 2.6719-0.10938 5.4297 0.12109 8.1719 0.64844 3.9297 1.2188 7.4883 3.4297 10.34 6.3906 0.25 0.26172 0.46094 0.25 0.71875 0.011719 0.19141-0.17969 0.19141-0.51172 0-0.69922-0.42188-0.42969-0.87109-0.87109-1.4414-1.3711l-2.8203-2.5195 3.3789 1.6992c7.8594 3.9414 15.57 10.699 22.922 20.07l0.23828 0.30078-0.23047 0.30859c-2.3281 3.1406-10.898 13.82-23.621 19.641l-3.4414 1.5703zm11.172-18.75c0.35938 0 0.73047 0.12891 1 0.37109 0.39844 0.33984 0.57812 0.87891 0.48047 1.4102-0.92969 4.8398-3.2305 9.3398-6.6094 12.961 10.68-5.8398 18.039-14.949 19.969-17.5-6.4219-8.1406-13.109-14.238-19.91-18.18 0.10937 0.48828-0.03125 1.0195-0.42188 1.3984-0.58984 0.55859-1.5703 0.53906-2.1289-0.039062-2.7383-2.8398-6.1484-4.9609-9.8711-6.1211-2.6094-0.5-5.2812-0.71875-7.8789-0.62109-1.3203 0.050782-2.6914 0.17969-4.0586 0.37891-1.1406 0.17969-2.3711 0.44922-3.7617 0.82031-6.7617 2.6484-11.941 8.3789-13.93 15.379 0.67188-0.050781 1.3594 0 2.0391 0.14844 1.6797-5.5117 5.5703-10.148 10.711-12.801l0.078125-0.039063c3.0312-1.5586 6.3086-2.3516 9.7617-2.3516 3.4492 0 6.7188 0.78906 9.7617 2.3398 5.3203 2.7383 9.2305 7.4883 10.879 13.129 0.64062-0.25 1.3008-0.41016 1.9609-0.46094-0.37109-1.3008-0.87109-2.6016-1.4805-3.8594-0.17969-0.35938-0.21094-0.76172-0.078125-1.1406 0.12891-0.37891 0.39844-0.69141 0.76172-0.85938 0.37109-0.17969 0.78125-0.19922 1.1602-0.070312 0.37891 0.12891 0.67969 0.39844 0.85156 0.76172 1.0312 2.1016 1.7695 4.3203 2.2109 6.6094 0.10938 0.51953-0.078125 1.0703-0.48828 1.4102-0.37109 0.33984-0.94922 0.46094-1.4492 0.28906-1.1602-0.37109-2.5-0.089844-3.4219 0.73828-0.55078 0.5-0.92188 1.1484-1.0781 1.8711-0.050782 0.23828-0.078125 0.48047-0.078125 0.73047 0 0.98828 0.42188 1.9297 1.1602 2.6016 0.92188 0.82031 2.2617 1.1094 3.4219 0.73828 0.14844-0.050782 0.30078-0.070313 0.46094-0.070313zm-24.031 16.238v-8.0117l0.46094-0.039062c1.2383-0.10938 2.4414-0.39844 3.5508-0.87109l0.69922-0.30078v4.7188c0 0.14062 0.050781 0.26172 0.14062 0.35938l2.5117 2.5117-0.71094 0.28125c-1.9492 0.76953-4.0117 1.2109-6.1211 1.3203zm1-7.1016v6.0312c1.5586-0.12891 3.0898-0.44922 4.5508-0.94922l-1.4219-1.4219c-0.28125-0.28125-0.44141-0.66016-0.44141-1.0586v-3.2305c-0.85938 0.30859-1.7695 0.51953-2.6992 0.62891zm-2 7.0898-0.51953-0.03125c-2.1016-0.10156-4.1719-0.55078-6.1719-1.3398l-0.71094-0.28125 2.5703-2.5781c0.089843-0.089843 0.14062-0.21875 0.14062-0.35937v-4.6211l0.69922 0.30078c1.0898 0.46875 2.2812 0.76172 3.5391 0.85938l0.46094 0.039062v8zm-5.6094-2.0273c1.5 0.53125 3.0508 0.85156 4.6094 0.96875v-6.0391c-0.94141-0.10938-1.8398-0.32031-2.6914-0.62109v3.1289c0 0.39844-0.14844 0.78125-0.44141 1.0586l-1.4805 1.4883zm-2.75-0.082032-0.32812-0.17969c-4.8008-2.5781-8.3281-7.0586-9.6797-12.289l-0.078124-0.32031 0.26953-0.19922c1.3711-1.0312 2.1797-2.6719 2.1797-4.3789 0-1.7109-0.80859-3.3398-2.1602-4.3711l-0.26172-0.19922 0.078125-0.32031c1.3203-5.1602 4.6211-9.4492 9.2891-12.07l0.32812-0.19141 3.0312 3.0508v4.4102l-0.21875 0.14844c-3.1914 2.1484-5.0898 5.7188-5.0898 9.5508 0 3.8281 1.8984 7.3906 5.0898 9.5508l0.21875 0.14844v5.0117l-2.6719 2.6719zm-8.9492-12.41c1.3008 4.7109 4.4805 8.75 8.7695 11.172l1.8516-1.8516v-4.0703c-3.3281-2.3516-5.3086-6.1484-5.3086-10.219s1.9805-7.8711 5.3086-10.219v-3.4688l-2.1992-2.2109c-4.1719 2.4492-7.1289 6.3203-8.3984 10.949 1.4414 1.2305 2.2891 3.0508 2.2891 4.9609 0 1.9102-0.85938 3.7383-2.3086 4.9688zm17.809 5.5312c-5.7891 0-10.5-4.7109-10.5-10.5s4.7109-10.5 10.5-10.5 10.5 4.7109 10.5 10.5-4.7109 10.5-10.5 10.5zm0-20c-5.2383 0-9.5 4.2617-9.5 9.5s4.2617 9.5 9.5 9.5 9.5-4.2617 9.5-9.5-4.2617-9.5-9.5-9.5zm5.1797-0.78906-0.69922-0.30078c-1.0781-0.46094-2.2695-0.75-3.5195-0.85938l-0.46094-0.039062v-8l0.51953 0.03125c2.2812 0.10938 4.5117 0.62891 6.6094 1.5312l0.67969 0.28906-2.9805 2.9805c-0.10156 0.10156-0.14844 0.21875-0.14844 0.35156v4.0312zm-3.6797-2.1094c0.94141 0.10938 1.8281 0.32031 2.6797 0.62109v-2.5391c0-0.39062 0.16016-0.76953 0.44922-1.0508l1.9297-1.9297c-1.6211-0.62109-3.3203-1-5.0508-1.1406v6.0391zm-6.6914 2.1094v-4.0195c0-0.14062-0.050782-0.26172-0.14062-0.35938l-2.9805-2.9805 0.67969-0.28906c2.0898-0.89844 4.3203-1.4219 6.6094-1.5312l0.51953-0.03125v8l-0.46094 0.039062c-1.25 0.10938-2.4414 0.39844-3.5391 0.85938l-0.69922 0.30078zm-1.3594-7.0117 1.9297 1.9297c0.28125 0.28125 0.44141 0.66016 0.44141 1.0586v2.5312c0.85156-0.30078 1.75-0.51172 2.6914-0.62109v-6.0391c-1.7383 0.14062-3.4414 0.51953-5.0508 1.1406z"
       id="path440" />
  </g>
</svg>
