<?xml version="1.0" encoding="UTF-8" standalone="no"?>
<svg
   version="1.1"
   width="1080"
   height="1080"
   viewBox="0 0 1080 1080"
   xml:space="preserve"
   id="svg184"
   sodipodi:docname="visao.svg"
   inkscape:version="1.2.2 (b0a8486541, 2022-12-01)"
   xmlns:inkscape="http://www.inkscape.org/namespaces/inkscape"
   xmlns:sodipodi="http://sodipodi.sourceforge.net/DTD/sodipodi-0.dtd"
   xmlns="http://www.w3.org/2000/svg"
   xmlns:svg="http://www.w3.org/2000/svg"><sodipodi:namedview
   id="namedview186"
   pagecolor="#ffffff"
   bordercolor="#000000"
   borderopacity="0.25"
   inkscape:showpageshadow="2"
   inkscape:pageopacity="0.0"
   inkscape:pagecheckerboard="0"
   inkscape:deskcolor="#d1d1d1"
   showgrid="false"
   inkscape:zoom="0.34700611"
   inkscape:cx="227.6617"
   inkscape:cy="419.30098"
   inkscape:window-width="1366"
   inkscape:window-height="696"
   inkscape:window-x="0"
   inkscape:window-y="29"
   inkscape:window-maximized="1"
   inkscape:current-layer="svg184" />
<desc
   id="desc2">Created with Fabric.js 5.2.4</desc>
<defs
   id="defs4">
</defs>
<rect
   x="0"
   y="0"
   width="100%"
   height="100%"
   fill="transparent"
   id="rect6" />
<g
   transform="matrix(1 0 0 1 540 540)"
   id="54bd5d7c-315f-4369-8b06-cf8f9b84171d">
</g>
<g
   transform="matrix(1 0 0 1 540 540)"
   id="06d5f134-7e2c-4309-a0e6-e6d7cca513bb">
<rect
   style="stroke: none; stroke-width: 1; stroke-dasharray: none; stroke-linecap: butt; stroke-dashoffset: 0; stroke-linejoin: miter; stroke-miterlimit: 4; fill: rgb(255,255,255); fill-rule: nonzero; opacity: 1; visibility: hidden;"
   vector-effect="non-scaling-stroke"
   x="-540"
   y="-540"
   rx="0"
   ry="0"
   width="1080"
   height="1080"
   id="rect9" />
</g>
<g
   transform="matrix(8.2950932,0,0,8.4292763,546.63454,517.50406)"
   id="g166">
<g
   vector-effect="non-scaling-stroke"
   id="g164">
		<g
   transform="translate(26.02,-35)"
   id="g14">
<path
   style="opacity:1;fill:#0b5ed7;fill-rule:nonzero;stroke:none;stroke-width:1;stroke-linecap:butt;stroke-linejoin:miter;stroke-miterlimit:4;stroke-dasharray:none;stroke-dashoffset:0"
   vector-effect="non-scaling-stroke"
   transform="translate(-76,-15)"
   d="m 73.301,19 h 5.3984 c 0.71875,0 1.3008,-0.57812 1.3008,-1.3008 V 12.3008 C 80.0002,11.58205 79.42208,11 78.6994,11 H 73.301 c -0.71875,0 -1.3008,0.57812 -1.3008,1.3008 v 5.3984 c 0,0.71875 0.57812,1.3008 1.3008,1.3008 z m 0.69922,-6 h 4 v 4 h -4 z"
   stroke-linecap="round"
   id="path12" />
</g>
		<g
   transform="translate(26.02,-35)"
   id="g18">
<path
   style="opacity:1;fill:#0b5ed7;fill-rule:nonzero;stroke:none;stroke-width:1;stroke-linecap:butt;stroke-linejoin:miter;stroke-miterlimit:4;stroke-dasharray:none;stroke-dashoffset:0"
   vector-effect="non-scaling-stroke"
   transform="translate(-76,-15)"
   d="m 78.699,19.5 h -5.3984 c -0.98828,0 -1.8008,-0.80859 -1.8008,-1.8008 v -5.3984 c 0,-0.98828 0.80859,-1.8008 1.8008,-1.8008 h 5.3984 c 0.98828,0 1.8008,0.80859 1.8008,1.8008 v 5.3984 c 0,0.98828 -0.80859,1.8008 -1.8008,1.8008 z m -5.3984,-8 c -0.44141,0 -0.80078,0.35938 -0.80078,0.80078 v 5.3984 c 0,0.44141 0.35938,0.80078 0.80078,0.80078 h 5.3984 c 0.44141,0 0.80078,-0.35938 0.80078,-0.80078 v -5.3984 C 79.49978,11.85937 79.1404,11.5 78.699,11.5 Z m 5.1992,6 h -5 v -5 h 5 z m -4,-1 h 3 v -3 h -3 z"
   stroke-linecap="round"
   id="path16" />
</g>
		<g
   transform="translate(39.02,-39)"
   id="g22">
<path
   style="opacity:1;fill:#0b5ed7;fill-rule:nonzero;stroke:none;stroke-width:1;stroke-linecap:butt;stroke-linejoin:miter;stroke-miterlimit:4;stroke-dasharray:none;stroke-dashoffset:0"
   vector-effect="non-scaling-stroke"
   transform="translate(-89,-11)"
   d="m 87.301,14 h 3.3984 c 0.71875,0 1.3008,-0.57812 1.3008,-1.3008 V 9.3008 C 92.0002,8.58205 91.42208,8 90.6994,8 H 87.301 c -0.71875,0 -1.3008,0.57812 -1.3008,1.3008 v 3.3984 c 0,0.71875 0.57812,1.3008 1.3008,1.3008 z m 0.69922,-4 h 2 v 2 h -2 z"
   stroke-linecap="round"
   id="path20" />
</g>
		<g
   transform="translate(39.02,-39)"
   id="g26">
<path
   style="opacity:1;fill:#0b5ed7;fill-rule:nonzero;stroke:none;stroke-width:1;stroke-linecap:butt;stroke-linejoin:miter;stroke-miterlimit:4;stroke-dasharray:none;stroke-dashoffset:0"
   vector-effect="non-scaling-stroke"
   transform="translate(-89,-11)"
   d="m 90.699,14.5 h -3.3984 c -0.98828,0 -1.8008,-0.80859 -1.8008,-1.8008 V 9.3008 C 85.4998,8.31252 86.30839,7.5 87.3006,7.5 h 3.3984 c 0.98828,0 1.8008,0.80859 1.8008,1.8008 v 3.3984 c 0,0.98828 -0.80859,1.8008 -1.8008,1.8008 z m -3.3984,-6 c -0.44141,0 -0.80078,0.35938 -0.80078,0.80078 v 3.3984 c 0,0.44141 0.35938,0.80078 0.80078,0.80078 h 3.3984 c 0.44141,0 0.80078,-0.35938 0.80078,-0.80078 V 9.30078 C 91.49978,8.85937 91.1404,8.5 90.699,8.5 Z m 3.1992,4 h -3 v -3 h 3 z m -2,-1 h 1 v -1 h -1 z"
   stroke-linecap="round"
   id="path24" />
</g>
		<g
   transform="translate(32.02,-23)"
   id="g30">
<path
   style="opacity:1;fill:#0b5ed7;fill-rule:nonzero;stroke:none;stroke-width:1;stroke-linecap:butt;stroke-linejoin:miter;stroke-miterlimit:4;stroke-dasharray:none;stroke-dashoffset:0"
   vector-effect="non-scaling-stroke"
   transform="translate(-82,-27)"
   d="m 77,23.301 v 7.3984 c 0,0.71875 0.57812,1.3008 1.3008,1.3008 h 7.3984 C 86.41795,32.0002 87,31.42208 87,30.6994 V 23.301 c 0,-0.71875 -0.57812,-1.3008 -1.3008,-1.3008 H 78.3008 C 77.58205,22.0002 77,22.57832 77,23.301 Z m 2,0.69922 h 6 v 6 h -6 z"
   stroke-linecap="round"
   id="path28" />
</g>
		<g
   transform="translate(32.02,-23)"
   id="g34">
<path
   style="opacity:1;fill:#0b5ed7;fill-rule:nonzero;stroke:none;stroke-width:1;stroke-linecap:butt;stroke-linejoin:miter;stroke-miterlimit:4;stroke-dasharray:none;stroke-dashoffset:0"
   vector-effect="non-scaling-stroke"
   transform="translate(-82,-27)"
   d="m 85.699,32.5 h -7.3984 c -0.98828,0 -1.8008,-0.80859 -1.8008,-1.8008 v -7.3984 c 0,-0.98828 0.80859,-1.8008 1.8008,-1.8008 h 7.3984 c 0.98828,0 1.8008,0.80859 1.8008,1.8008 v 7.3984 c 0,0.98828 -0.80859,1.8008 -1.8008,1.8008 z m -7.3984,-10 c -0.44141,0 -0.80078,0.35938 -0.80078,0.80078 v 7.3984 c 0,0.44141 0.35938,0.80078 0.80078,0.80078 h 7.3984 c 0.44141,0 0.80078,-0.35938 0.80078,-0.80078 v -7.3984 C 86.49978,22.85937 86.1404,22.5 85.699,22.5 Z m 7.1992,8 h -7 v -7 h 7 z m -6,-1 h 5 v -5 h -5 z"
   stroke-linecap="round"
   id="path32" />
</g>
		<g
   transform="translate(14.02,-32)"
   id="g38">
<path
   style="opacity:1;fill:#0b5ed7;fill-rule:nonzero;stroke:none;stroke-width:1;stroke-linecap:butt;stroke-linejoin:miter;stroke-miterlimit:4;stroke-dasharray:none;stroke-dashoffset:0"
   vector-effect="non-scaling-stroke"
   transform="translate(-64,-18)"
   d="m 62.301,21 h 3.3984 c 0.71875,0 1.3008,-0.57812 1.3008,-1.3008 V 16.3008 C 67.0002,15.58205 66.42208,15 65.6994,15 H 62.301 c -0.71875,0 -1.3008,0.57812 -1.3008,1.3008 v 3.3984 c 0,0.71875 0.57812,1.3008 1.3008,1.3008 z m 0.69922,-4 h 2 v 2 h -2 z"
   stroke-linecap="round"
   id="path36" />
</g>
		<g
   transform="translate(14.02,-32)"
   id="g42">
<path
   style="opacity:1;fill:#0b5ed7;fill-rule:nonzero;stroke:none;stroke-width:1;stroke-linecap:butt;stroke-linejoin:miter;stroke-miterlimit:4;stroke-dasharray:none;stroke-dashoffset:0"
   vector-effect="non-scaling-stroke"
   transform="translate(-64,-18)"
   d="m 65.699,21.5 h -3.3984 c -0.98828,0 -1.8008,-0.80859 -1.8008,-1.8008 v -3.3984 c 0,-0.98828 0.80859,-1.8008 1.8008,-1.8008 h 3.3984 c 0.98828,0 1.8008,0.80859 1.8008,1.8008 v 3.3984 c 0,0.98828 -0.80859,1.8008 -1.8008,1.8008 z m -3.3984,-6 c -0.44141,0 -0.80078,0.35938 -0.80078,0.80078 v 3.3984 c 0,0.44141 0.35938,0.80078 0.80078,0.80078 h 3.3984 c 0.44141,0 0.80078,-0.35938 0.80078,-0.80078 v -3.3984 C 66.49978,15.85937 66.1404,15.5 65.699,15.5 Z m 3.1992,4 h -3 v -3 h 3 z m -2,-1 h 1 v -1 h -1 z"
   stroke-linecap="round"
   id="path40" />
</g>
		<g
   transform="translate(-30.79,-41)"
   id="g46">
<path
   style="opacity:1;fill:#0b5ed7;fill-rule:nonzero;stroke:none;stroke-width:1;stroke-linecap:butt;stroke-linejoin:miter;stroke-miterlimit:4;stroke-dasharray:none;stroke-dashoffset:0"
   vector-effect="non-scaling-stroke"
   transform="translate(-19.2,-9)"
   d="m 8.8281,10 h 20.738 c 0.55078,0 1,-0.44922 1,-1 0,-0.55078 -0.44922,-1 -1,-1 H 8.8281 c -0.55078,0 -1,0.44922 -1,1 0,0.55078 0.44922,1 1,1 z"
   stroke-linecap="round"
   id="path44" />
</g>
		<g
   transform="translate(-30.79,-41)"
   id="g50">
<path
   style="opacity:1;fill:#0b5ed7;fill-rule:nonzero;stroke:none;stroke-width:1;stroke-linecap:butt;stroke-linejoin:miter;stroke-miterlimit:4;stroke-dasharray:none;stroke-dashoffset:0"
   vector-effect="non-scaling-stroke"
   transform="translate(-19.2,-9)"
   d="M 29.57,10.5 H 8.828 c -0.82812,0 -1.5,-0.67188 -1.5,-1.5 0,-0.82812 0.67188,-1.5 1.5,-1.5 h 20.738 c 0.82812,0 1.5,0.67188 1.5,1.5 0,0.82812 -0.67188,1.5 -1.5,1.5 z M 8.828,8.5 c -0.28125,0 -0.5,0.21875 -0.5,0.5 0,0.28125 0.21875,0.5 0.5,0.5 h 20.738 c 0.28125,0 0.5,-0.21875 0.5,-0.5 0,-0.28125 -0.21875,-0.5 -0.5,-0.5 z"
   stroke-linecap="round"
   id="path48" />
</g>
		<g
   transform="translate(-30.79,-36.22)"
   id="g54">
<path
   style="opacity:1;fill:#0b5ed7;fill-rule:nonzero;stroke:none;stroke-width:1;stroke-linecap:butt;stroke-linejoin:miter;stroke-miterlimit:4;stroke-dasharray:none;stroke-dashoffset:0"
   vector-effect="non-scaling-stroke"
   transform="translate(-19.2,-13.78)"
   d="m 8.8281,14.781 h 20.738 c 0.55078,0 1,-0.44922 1,-1 0,-0.55078 -0.44922,-1 -1,-1 H 8.8281 c -0.55078,0 -1,0.44922 -1,1 0,0.55078 0.44922,1 1,1 z"
   stroke-linecap="round"
   id="path52" />
</g>
		<g
   transform="translate(-30.79,-36.22)"
   id="g58">
<path
   style="opacity:1;fill:#0b5ed7;fill-rule:nonzero;stroke:none;stroke-width:1;stroke-linecap:butt;stroke-linejoin:miter;stroke-miterlimit:4;stroke-dasharray:none;stroke-dashoffset:0"
   vector-effect="non-scaling-stroke"
   transform="translate(-19.2,-13.78)"
   d="M 29.57,15.281 H 8.828 c -0.82812,0 -1.5,-0.67188 -1.5,-1.5 0,-0.82812 0.67188,-1.5 1.5,-1.5 h 20.738 c 0.82812,0 1.5,0.67188 1.5,1.5 0,0.82812 -0.67188,1.5 -1.5,1.5 z m -20.742,-2 c -0.28125,0 -0.5,0.21875 -0.5,0.5 0,0.28125 0.21875,0.5 0.5,0.5 h 20.738 c 0.28125,0 0.5,-0.21875 0.5,-0.5 0,-0.28125 -0.21875,-0.5 -0.5,-0.5 z"
   stroke-linecap="round"
   id="path56" />
</g>
		<g
   transform="translate(-33.07,-32)"
   id="g62">
<path
   style="opacity:1;fill:#0b5ed7;fill-rule:nonzero;stroke:none;stroke-width:1;stroke-linecap:butt;stroke-linejoin:miter;stroke-miterlimit:4;stroke-dasharray:none;stroke-dashoffset:0"
   vector-effect="non-scaling-stroke"
   transform="translate(-16.91,-18)"
   d="m 8.8281,19 h 16.172 c 0.55078,0 1,-0.44922 1,-1 0,-0.55078 -0.44922,-1 -1,-1 H 8.8281 c -0.55078,0 -1,0.44922 -1,1 0,0.55078 0.44922,1 1,1 z"
   stroke-linecap="round"
   id="path60" />
</g>
		<g
   transform="translate(-33.07,-32)"
   id="g66">
<path
   style="opacity:1;fill:#0b5ed7;fill-rule:nonzero;stroke:none;stroke-width:1;stroke-linecap:butt;stroke-linejoin:miter;stroke-miterlimit:4;stroke-dasharray:none;stroke-dashoffset:0"
   vector-effect="non-scaling-stroke"
   transform="translate(-16.91,-18)"
   d="M 25,19.5 H 8.828 c -0.82812,0 -1.5,-0.67188 -1.5,-1.5 0,-0.82812 0.67188,-1.5 1.5,-1.5 H 25 c 0.82812,0 1.5,0.67188 1.5,1.5 0,0.82812 -0.67188,1.5 -1.5,1.5 z m -16.172,-2 c -0.28125,0 -0.5,0.21875 -0.5,0.5 0,0.28125 0.21875,0.5 0.5,0.5 H 25 c 0.28125,0 0.5,-0.21875 0.5,-0.5 0,-0.28125 -0.21875,-0.5 -0.5,-0.5 z"
   stroke-linecap="round"
   id="path64" />
</g>
		<g
   transform="translate(-23.42,-25.64)"
   id="g70">
<path
   style="opacity:1;fill:#0b5ed7;fill-rule:nonzero;stroke:none;stroke-width:1;stroke-linecap:butt;stroke-linejoin:miter;stroke-miterlimit:4;stroke-dasharray:none;stroke-dashoffset:0"
   vector-effect="non-scaling-stroke"
   transform="translate(-26.56,-24.36)"
   d="m 29.57,22 h -8.7383 c -0.55078,0 -1,0.44922 -1,1 0,0.55078 0.44922,1 1,1 h 8.3281 l 2.4219,2.4219 c 0.19922,0.19922 0.44922,0.28906 0.71094,0.28906 0.26172,0 0.51172,-0.10156 0.71094,-0.28906 0.39062,-0.39062 0.39062,-1.0195 0,-1.4102 l -2.7188,-2.7188 c -0.19141,-0.19141 -0.44141,-0.28906 -0.71094,-0.28906 z"
   stroke-linecap="round"
   id="path68" />
</g>
		<g
   transform="translate(-23.44,-25.64)"
   id="g74">
<path
   style="opacity:1;fill:#0b5ed7;fill-rule:nonzero;stroke:none;stroke-width:1;stroke-linecap:butt;stroke-linejoin:miter;stroke-miterlimit:4;stroke-dasharray:none;stroke-dashoffset:0"
   vector-effect="non-scaling-stroke"
   transform="translate(-26.54,-24.36)"
   d="m 32.281,27.219 c -0.39844,0 -0.78125,-0.16016 -1.0586,-0.44141 l -2.2812,-2.2812 h -8.1211 c -0.82812,0 -1.5,-0.67188 -1.5,-1.5 0,-0.82812 0.67188,-1.5 1.5,-1.5 h 8.7383 c 0.39844,0 0.78125,0.16016 1.0586,0.44141 l 2.7188,2.7188 c 0.57812,0.57812 0.57812,1.5391 0,2.1211 -0.28125,0.28125 -0.66016,0.44141 -1.0586,0.44141 z M 20.828,22.5002 c -0.28125,0 -0.5,0.21875 -0.5,0.5 0,0.28125 0.21875,0.5 0.5,0.5 h 8.5312 l 2.5703,2.5703 c 0.19141,0.19141 0.51953,0.19141 0.71094,0 0.19141,-0.19141 0.19141,-0.51172 0,-0.71094 l -2.7188,-2.7188 C 29.8318,22.55092 29.70289,22.49232 29.57008,22.49232 h -8.7383 z"
   stroke-linecap="round"
   id="path72" />
</g>
		<g
   transform="translate(-38.29,-27)"
   id="g78">
<path
   style="opacity:1;fill:#0b5ed7;fill-rule:nonzero;stroke:none;stroke-width:1;stroke-linecap:butt;stroke-linejoin:miter;stroke-miterlimit:4;stroke-dasharray:none;stroke-dashoffset:0"
   vector-effect="non-scaling-stroke"
   transform="translate(-11.7,-23)"
   d="m 8.8281,24 h 5.7383 c 0.55078,0 1,-0.44922 1,-1 0,-0.55078 -0.44922,-1 -1,-1 H 8.8281 c -0.55078,0 -1,0.44922 -1,1 0,0.55078 0.44922,1 1,1 z"
   stroke-linecap="round"
   id="path76" />
</g>
		<g
   transform="translate(-38.28,-27)"
   id="g82">
<path
   style="opacity:1;fill:#0b5ed7;fill-rule:nonzero;stroke:none;stroke-width:1;stroke-linecap:butt;stroke-linejoin:miter;stroke-miterlimit:4;stroke-dasharray:none;stroke-dashoffset:0"
   vector-effect="non-scaling-stroke"
   transform="translate(-11.7,-23)"
   d="M 14.57,24.5 H 8.8317 c -0.82812,0 -1.5,-0.67188 -1.5,-1.5 0,-0.82812 0.67188,-1.5 1.5,-1.5 H 14.57 c 0.82813,0 1.5,0.67188 1.5,1.5 0,0.82812 -0.67187,1.5 -1.5,1.5 z m -5.7422,-2 c -0.28125,0 -0.5,0.21875 -0.5,0.5 0,0.28125 0.21875,0.5 0.5,0.5 h 5.7383 c 0.28125,0 0.5,-0.21875 0.5,-0.5 0,-0.28125 -0.21875,-0.5 -0.5,-0.5 z"
   stroke-linecap="round"
   id="path80" />
</g>
		<g
   transform="translate(-26.16,35)"
   id="g86">
<path
   style="opacity:1;fill:#0b5ed7;fill-rule:nonzero;stroke:none;stroke-width:1;stroke-linecap:butt;stroke-linejoin:miter;stroke-miterlimit:4;stroke-dasharray:none;stroke-dashoffset:0"
   vector-effect="non-scaling-stroke"
   transform="translate(-23.83,-85)"
   d="m 26.52,81 h -5.3906 c -0.71875,0 -1.3008,0.57812 -1.3008,1.3008 v 5.3984 c 0,0.71875 0.57812,1.3008 1.3008,1.3008 H 26.52 c 0.71875,0 1.3086,-0.57812 1.3086,-1.3008 V 82.3008 C 27.8286,81.58205 27.23876,81 26.52,81 Z m -0.69141,6 h -4 v -4 h 4 z"
   stroke-linecap="round"
   id="path84" />
</g>
		<g
   transform="translate(-26.16,35)"
   id="g90">
<path
   style="opacity:1;fill:#0b5ed7;fill-rule:nonzero;stroke:none;stroke-width:1;stroke-linecap:butt;stroke-linejoin:miter;stroke-miterlimit:4;stroke-dasharray:none;stroke-dashoffset:0"
   vector-effect="non-scaling-stroke"
   transform="translate(-23.83,-85)"
   d="m 26.52,89.5 h -5.3906 c -0.98828,0 -1.8008,-0.80859 -1.8008,-1.8008 v -5.3984 c 0,-0.98828 0.80859,-1.8008 1.8008,-1.8008 H 26.52 c 1,0 1.8086,0.80859 1.8086,1.8008 v 5.3984 c 0,0.98828 -0.80859,1.8008 -1.8086,1.8008 z m -5.3906,-8 c -0.44141,0 -0.80078,0.35938 -0.80078,0.80078 v 5.3984 c 0,0.44141 0.35938,0.80078 0.80078,0.80078 H 26.52 c 0.44922,0 0.80859,-0.35938 0.80859,-0.80078 v -5.3984 C 27.32859,81.85937 26.96921,81.5 26.52,81.5 Z m 5.1992,6 h -5 v -5 h 5 z m -4,-1 h 3 v -3 h -3 z"
   stroke-linecap="round"
   id="path88" />
</g>
		<g
   transform="translate(-39.16,39)"
   id="g94">
<path
   style="opacity:1;fill:#0b5ed7;fill-rule:nonzero;stroke:none;stroke-width:1;stroke-linecap:butt;stroke-linejoin:miter;stroke-miterlimit:4;stroke-dasharray:none;stroke-dashoffset:0"
   vector-effect="non-scaling-stroke"
   transform="translate(-10.83,-89)"
   d="M 12.52,86 H 9.1294 c -0.71875,0 -1.3008,0.57812 -1.3008,1.3008 v 3.3984 C 7.8286,91.41795 8.40672,92 9.1294,92 H 12.52 c 0.71875,0 1.3086,-0.57812 1.3086,-1.3008 V 87.3008 C 13.8286,86.58205 13.23876,86 12.52,86 Z m -0.69141,4 h -2 v -2 h 2 z"
   stroke-linecap="round"
   id="path92" />
</g>
		<g
   transform="translate(-39.16,39)"
   id="g98">
<path
   style="opacity:1;fill:#0b5ed7;fill-rule:nonzero;stroke:none;stroke-width:1;stroke-linecap:butt;stroke-linejoin:miter;stroke-miterlimit:4;stroke-dasharray:none;stroke-dashoffset:0"
   vector-effect="non-scaling-stroke"
   transform="translate(-10.83,-89)"
   d="M 12.52,92.5 H 9.1294 C 8.14112,92.5 7.3286,91.69141 7.3286,90.6992 V 87.3008 C 7.3286,86.31252 8.13719,85.5 9.1294,85.5 H 12.52 c 1,0 1.8086,0.80859 1.8086,1.8008 v 3.3984 c 0,0.98828 -0.80859,1.8008 -1.8086,1.8008 z m -3.3906,-6 c -0.44141,0 -0.80078,0.35938 -0.80078,0.80078 v 3.3984 c 0,0.44141 0.35938,0.80078 0.80078,0.80078 H 12.52 c 0.44922,0 0.80859,-0.35938 0.80859,-0.80078 v -3.3984 C 13.32859,86.85937 12.96921,86.5 12.52,86.5 Z m 3.1992,4 h -3 v -3 h 3 z m -2,-1 h 1 v -1 h -1 z"
   stroke-linecap="round"
   id="path96" />
</g>
		<g
   transform="translate(-32.16,23)"
   id="g102">
<path
   style="opacity:1;fill:#0b5ed7;fill-rule:nonzero;stroke:none;stroke-width:1;stroke-linecap:butt;stroke-linejoin:miter;stroke-miterlimit:4;stroke-dasharray:none;stroke-dashoffset:0"
   vector-effect="non-scaling-stroke"
   transform="translate(-17.83,-73)"
   d="m 22.828,76.699 v -7.3984 c 0,-0.71875 -0.58984,-1.3008 -1.3086,-1.3008 h -7.3906 c -0.71875,0 -1.3008,0.57812 -1.3008,1.3008 v 7.3984 c 0,0.71875 0.57812,1.3008 1.3008,1.3008 h 7.3906 c 0.71875,0 1.3086,-0.57812 1.3086,-1.3008 z m -2,-0.69922 h -6 v -6 h 6 z"
   stroke-linecap="round"
   id="path100" />
</g>
		<g
   transform="translate(-32.16,23)"
   id="g106">
<path
   style="opacity:1;fill:#0b5ed7;fill-rule:nonzero;stroke:none;stroke-width:1;stroke-linecap:butt;stroke-linejoin:miter;stroke-miterlimit:4;stroke-dasharray:none;stroke-dashoffset:0"
   vector-effect="non-scaling-stroke"
   transform="translate(-17.83,-73)"
   d="m 21.52,78.5 h -7.3906 c -0.98828,0 -1.8008,-0.80859 -1.8008,-1.8008 v -7.3984 c 0,-0.98828 0.80859,-1.8008 1.8008,-1.8008 H 21.52 c 1,0 1.8086,0.80859 1.8086,1.8008 v 7.3984 c 0,0.98828 -0.80859,1.8008 -1.8086,1.8008 z m -7.3906,-10 c -0.44141,0 -0.80078,0.35938 -0.80078,0.80078 v 7.3984 c 0,0.44141 0.35938,0.80078 0.80078,0.80078 H 21.52 c 0.44922,0 0.80859,-0.35938 0.80859,-0.80078 v -7.3984 C 22.32859,68.85937 21.96921,68.5 21.52,68.5 Z m 7.1992,8 h -7 v -7 h 7 z m -6,-1 h 5 v -5 h -5 z"
   stroke-linecap="round"
   id="path104" />
</g>
		<g
   transform="translate(-14.16,32)"
   id="g110">
<path
   style="opacity:1;fill:#0b5ed7;fill-rule:nonzero;stroke:none;stroke-width:1;stroke-linecap:butt;stroke-linejoin:miter;stroke-miterlimit:4;stroke-dasharray:none;stroke-dashoffset:0"
   vector-effect="non-scaling-stroke"
   transform="translate(-35.83,-82)"
   d="m 37.52,79 h -3.3906 c -0.71875,0 -1.3008,0.57812 -1.3008,1.3008 v 3.3984 c 0,0.71875 0.57812,1.3008 1.3008,1.3008 H 37.52 c 0.71875,0 1.3086,-0.57812 1.3086,-1.3008 V 80.3008 C 38.8286,79.58205 38.23876,79 37.52,79 Z m -0.69141,4 h -2 v -2 h 2 z"
   stroke-linecap="round"
   id="path108" />
</g>
		<g
   transform="translate(-14.16,32)"
   id="g114">
<path
   style="opacity:1;fill:#0b5ed7;fill-rule:nonzero;stroke:none;stroke-width:1;stroke-linecap:butt;stroke-linejoin:miter;stroke-miterlimit:4;stroke-dasharray:none;stroke-dashoffset:0"
   vector-effect="non-scaling-stroke"
   transform="translate(-35.83,-82)"
   d="m 37.52,85.5 h -3.3906 c -0.98828,0 -1.8008,-0.80859 -1.8008,-1.8008 v -3.3984 c 0,-0.98828 0.80859,-1.8008 1.8008,-1.8008 H 37.52 c 1,0 1.8086,0.80859 1.8086,1.8008 v 3.3984 c 0,0.98828 -0.80859,1.8008 -1.8086,1.8008 z m -3.3906,-6 c -0.44141,0 -0.80078,0.35938 -0.80078,0.80078 v 3.3984 c 0,0.44141 0.35938,0.80078 0.80078,0.80078 H 37.52 c 0.44922,0 0.80859,-0.35938 0.80859,-0.80078 v -3.3984 C 38.32859,79.85937 37.96921,79.5 37.52,79.5 Z m 3.1992,4 h -3 v -3 h 3 z m -2,-1 h 1 v -1 h -1 z"
   stroke-linecap="round"
   id="path112" />
</g>
		<g
   transform="translate(30.65,32)"
   id="g118">
<path
   style="opacity:1;fill:#0b5ed7;fill-rule:nonzero;stroke:none;stroke-width:1;stroke-linecap:butt;stroke-linejoin:miter;stroke-miterlimit:4;stroke-dasharray:none;stroke-dashoffset:0"
   vector-effect="non-scaling-stroke"
   transform="translate(-80.63,-82)"
   d="M 91,81 H 70.262 c -0.55078,0 -1,0.44922 -1,1 0,0.55078 0.44922,1 1,1 H 91 c 0.55078,0 1,-0.44922 1,-1 0,-0.55078 -0.44922,-1 -1,-1 z"
   stroke-linecap="round"
   id="path116" />
</g>
		<g
   transform="translate(30.65,32)"
   id="g122">
<path
   style="opacity:1;fill:#0b5ed7;fill-rule:nonzero;stroke:none;stroke-width:1;stroke-linecap:butt;stroke-linejoin:miter;stroke-miterlimit:4;stroke-dasharray:none;stroke-dashoffset:0"
   vector-effect="non-scaling-stroke"
   transform="translate(-80.63,-82)"
   d="M 91,83.5 H 70.262 c -0.82812,0 -1.5,-0.67188 -1.5,-1.5 0,-0.82812 0.67188,-1.5 1.5,-1.5 H 91 c 0.82812,0 1.5,0.67188 1.5,1.5 0,0.82812 -0.67188,1.5 -1.5,1.5 z m -20.738,-2 c -0.28125,0 -0.5,0.21875 -0.5,0.5 0,0.28125 0.21875,0.5 0.5,0.5 H 91 c 0.28125,0 0.5,-0.21875 0.5,-0.5 0,-0.28125 -0.21875,-0.5 -0.5,-0.5 z"
   stroke-linecap="round"
   id="path120" />
</g>
		<g
   transform="translate(30.65,36.22)"
   id="g126">
<path
   style="opacity:1;fill:#0b5ed7;fill-rule:nonzero;stroke:none;stroke-width:1;stroke-linecap:butt;stroke-linejoin:miter;stroke-miterlimit:4;stroke-dasharray:none;stroke-dashoffset:0"
   vector-effect="non-scaling-stroke"
   transform="translate(-80.63,-86.22)"
   d="M 91,85.219 H 70.262 c -0.55078,0 -1,0.44922 -1,1 0,0.55078 0.44922,1 1,1 H 91 c 0.55078,0 1,-0.44922 1,-1 0,-0.55078 -0.44922,-1 -1,-1 z"
   stroke-linecap="round"
   id="path124" />
</g>
		<g
   transform="translate(30.65,36.22)"
   id="g130">
<path
   style="opacity:1;fill:#0b5ed7;fill-rule:nonzero;stroke:none;stroke-width:1;stroke-linecap:butt;stroke-linejoin:miter;stroke-miterlimit:4;stroke-dasharray:none;stroke-dashoffset:0"
   vector-effect="non-scaling-stroke"
   transform="translate(-80.63,-86.22)"
   d="M 91,87.719 H 70.262 c -0.82812,0 -1.5,-0.67188 -1.5,-1.5 0,-0.82812 0.67188,-1.5 1.5,-1.5 H 91 c 0.82812,0 1.5,0.67188 1.5,1.5 0,0.82812 -0.67188,1.5 -1.5,1.5 z m -20.738,-2 c -0.28125,0 -0.5,0.21875 -0.5,0.5 0,0.28125 0.21875,0.5 0.5,0.5 H 91 c 0.28125,0 0.5,-0.21875 0.5,-0.5 0,-0.28125 -0.21875,-0.5 -0.5,-0.5 z"
   stroke-linecap="round"
   id="path128" />
</g>
		<g
   transform="translate(26.36,40.61)"
   id="g134">
<path
   style="opacity:1;fill:#0b5ed7;fill-rule:nonzero;stroke:none;stroke-width:1;stroke-linecap:butt;stroke-linejoin:miter;stroke-miterlimit:4;stroke-dasharray:none;stroke-dashoffset:0"
   vector-effect="non-scaling-stroke"
   transform="translate(-76.34,-90.61)"
   d="M 82.43,89.609 H 70.258 c -0.55078,0 -1,0.44922 -1,1 0,0.55078 0.44922,1 1,1 H 82.43 c 0.55078,0 1,-0.44922 1,-1 0,-0.55078 -0.44922,-1 -1,-1 z"
   stroke-linecap="round"
   id="path132" />
</g>
		<g
   transform="translate(26.36,40.61)"
   id="g138">
<path
   style="opacity:1;fill:#0b5ed7;fill-rule:nonzero;stroke:none;stroke-width:1;stroke-linecap:butt;stroke-linejoin:miter;stroke-miterlimit:4;stroke-dasharray:none;stroke-dashoffset:0"
   vector-effect="non-scaling-stroke"
   transform="translate(-76.34,-90.61)"
   d="M 82.43,92.109 H 70.258 c -0.82812,0 -1.5,-0.67188 -1.5,-1.5 0,-0.82812 0.67188,-1.5 1.5,-1.5 H 82.43 c 0.82812,0 1.5,0.67188 1.5,1.5 0,0.82812 -0.67188,1.5 -1.5,1.5 z m -12.168,-2 c -0.28125,0 -0.5,0.21875 -0.5,0.5 0,0.28125 0.21875,0.5 0.5,0.5 h 12.172 c 0.28125,0 0.5,-0.21875 0.5,-0.5 0,-0.28125 -0.21875,-0.5 -0.5,-0.5 z"
   stroke-linecap="round"
   id="path136" />
</g>
		<g
   transform="translate(29.29,25.65)"
   id="g142">
<path
   style="opacity:1;fill:#0b5ed7;fill-rule:nonzero;stroke:none;stroke-width:1;stroke-linecap:butt;stroke-linejoin:miter;stroke-miterlimit:4;stroke-dasharray:none;stroke-dashoffset:0"
   vector-effect="non-scaling-stroke"
   transform="translate(-79.28,-75.64)"
   d="M 91,76 H 70.672 l -2.4219,-2.4219 c -0.39062,-0.39062 -1.0195,-0.39062 -1.4102,0 -0.3907,0.39062 -0.39062,1.0195 0,1.4102 l 2.7188,2.7188 c 0.19141,0.19141 0.44141,0.28906 0.71094,0.28906 h 20.738 c 0.55078,0 1,-0.44922 1,-1 0,-0.55078 -0.44922,-1 -1,-1 z"
   stroke-linecap="round"
   id="path140" />
</g>
		<g
   transform="translate(29.3,25.65)"
   id="g146">
<path
   style="opacity:1;fill:#0b5ed7;fill-rule:nonzero;stroke:none;stroke-width:1;stroke-linecap:butt;stroke-linejoin:miter;stroke-miterlimit:4;stroke-dasharray:none;stroke-dashoffset:0"
   vector-effect="non-scaling-stroke"
   transform="translate(-79.28,-75.64)"
   d="M 91,78.5 H 70.262 c -0.39844,0 -0.78125,-0.16016 -1.0586,-0.44141 l -2.7188,-2.7188 c -0.57812,-0.57812 -0.57812,-1.5391 0,-2.1211 0.57812,-0.57812 1.5391,-0.57812 2.1211,0 l 2.2812,2.2812 h 20.121 c 0.82813,0 1.5,0.67188 1.5,1.5 0,0.82812 -0.67187,1.5 -1.5,1.5 z M 67.539,73.7812 c -0.12891,0 -0.26172,0.05078 -0.35156,0.14844 -0.19922,0.19922 -0.19922,0.51172 0,0.71094 l 2.7188,2.7188 c 0.08984,0.08984 0.21875,0.14844 0.35156,0.14844 h 20.738 c 0.28125,0 0.5,-0.21875 0.5,-0.5 0,-0.28125 -0.21875,-0.5 -0.5,-0.5 h -20.531 l -2.5703,-2.5703 c -0.10156,-0.10156 -0.23047,-0.14844 -0.35156,-0.14844 z"
   stroke-linecap="round"
   id="path144" />
</g>
		<g
   transform="translate(0.02)"
   id="g150">
<path
   style="opacity:1;fill:#0b5ed7;fill-rule:nonzero;stroke:none;stroke-width:1;stroke-linecap:butt;stroke-linejoin:miter;stroke-miterlimit:4;stroke-dasharray:none;stroke-dashoffset:0"
   vector-effect="non-scaling-stroke"
   transform="translate(-50,-50)"
   d="m 44,50 c 0,3.3086 2.6914,6 6,6 3.3086,0 6,-2.6914 6,-6 0,-3.3086 -2.6914,-6 -6,-6 -3.3086,0 -6,2.6914 -6,6 z m 10,0 c 0,2.2109 -1.7891,4 -4,4 -2.2109,0 -4,-1.7891 -4,-4 0,-2.2109 1.7891,-4 4,-4 2.2109,0 4,1.7891 4,4 z"
   stroke-linecap="round"
   id="path148" />
</g>
		<g
   transform="translate(0.02)"
   id="g154">
<path
   style="opacity:1;fill:#0b5ed7;fill-rule:nonzero;stroke:none;stroke-width:1;stroke-linecap:butt;stroke-linejoin:miter;stroke-miterlimit:4;stroke-dasharray:none;stroke-dashoffset:0"
   vector-effect="non-scaling-stroke"
   transform="translate(-50,-50)"
   d="m 50,56.5 c -3.5781,0 -6.5,-2.9219 -6.5,-6.5 0,-3.5781 2.9219,-6.5 6.5,-6.5 3.5781,0 6.5,2.9219 6.5,6.5 0,3.5781 -2.9219,6.5 -6.5,6.5 z m 0,-12 c -3.0312,0 -5.5,2.4688 -5.5,5.5 0,3.0312 2.4688,5.5 5.5,5.5 3.0312,0 5.5,-2.4688 5.5,-5.5 0,-3.0312 -2.4688,-5.5 -5.5,-5.5 z m 0,10 c -2.4805,0 -4.5,-2.0195 -4.5,-4.5 0,-2.4805 2.0195,-4.5 4.5,-4.5 2.4805,0 4.5,2.0195 4.5,4.5 0,2.4805 -2.0195,4.5 -4.5,4.5 z m 0,-8 c -1.9297,0 -3.5,1.5703 -3.5,3.5 0,1.9297 1.5703,3.5 3.5,3.5 1.9297,0 3.5,-1.5703 3.5,-3.5 0,-1.9297 -1.5703,-3.5 -3.5,-3.5 z"
   stroke-linecap="round"
   id="path152" />
</g>
		<g
   transform="translate(0,0.07)"
   id="g158">
<path
   style="opacity:1;fill:#0b5ed7;fill-rule:nonzero;stroke:none;stroke-width:1;stroke-linecap:butt;stroke-linejoin:miter;stroke-miterlimit:4;stroke-dasharray:none;stroke-dashoffset:0"
   vector-effect="non-scaling-stroke"
   transform="translate(-49.99,-50.07)"
   d="M 92.051,49.871 C 83.1721,38.383 73.781,30.68 64.141,27 c -0.01953,0 -0.03906,-0.01953 -0.05859,-0.01953 -4.9297,-1.8711 -9.9883,-2.7188 -15.012,-2.5195 -1.4102,0.05078 -2.8789,0.19141 -4.3516,0.41016 -3.3516,0.53125 -6.7305,1.5117 -10.051,2.9219 -16.078,6.8281 -26.359,21.512 -26.789,22.129 -0.25,0.37109 -0.23047,0.85938 0.050782,1.2109 3.0312,3.6602 6.1289,6.9492 9.2188,9.7891 0.41016,0.37891 1.0391,0.35156 1.4102,-0.05859 0.37109,-0.41016 0.35156,-1.0391 -0.05859,-1.4102 -2.8594,-2.6211 -5.7305,-5.6484 -8.5391,-9 1.9414,-2.6016 10.109,-12.879 21.91,-19.102 -3.8711,3.7617 -6.5586,8.7109 -7.5,14.238 -0.05859,0.39062 0.10938,0.78125 0.44141,1 0.32031,0.21875 0.75,0.23047 1.0781,0.01953 1.1914,-0.75 2.8281,-0.78906 4.0898,-0.07031 1.2383,0.71094 2.0117,2.0391 2.0117,3.4688 0,1.4297 -0.76953,2.7617 -2.0195,3.4688 -1.25,0.71875 -2.8906,0.67969 -4.0781,-0.05859 -0.32812,-0.21875 -0.76172,-0.21094 -1.0781,0.01172 -0.32812,0.21875 -0.5,0.60937 -0.44141,1 1.0117,5.9102 3.9883,11.148 8.3086,14.988 -2.5898,-1.2812 -5.1797,-2.8398 -7.7305,-4.6914 -0.44922,-0.32031 -1.0703,-0.21875 -1.3984,0.23047 -0.32031,0.44922 -0.21875,1.0703 0.23047,1.3984 3.9414,2.8398 7.9688,5.0703 11.98,6.6016 0.03125,0.01953 0.07031,0.03125 0.10156,0.03906 2.3281,0.89062 4.6914,1.5703 7.0117,2.0195 2.2109,0.42969 4.4414,0.67188 6.6211,0.69922 h 0.76953 c 4.3398,0 8.7109,-0.76172 13.012,-2.25 17.41,-6.0117 28.352,-21.75 28.809,-22.422 0.25,-0.35938 0.23047,-0.82812 -0.03125,-1.1797 z M 34,49.99991 c 0,-1.8789 -0.89062,-3.6484 -2.3594,-4.7695 1.2812,-5.0117 4.5312,-9.2188 9.0508,-11.762 l 2.6211,2.6289 v 3.9414 c -3.1992,2.1602 -5.3086,5.8203 -5.3086,9.9609 0,4.1406 2.1094,7.8008 5.3086,9.9609 v 4.5391 l -2.2617,2.2617 c -4.6484,-2.5 -8.1211,-6.8984 -9.4297,-11.98 C 33.1016,53.66021 34,51.89071 34,50.00011 Z m 26,0 c 0,5.5117 -4.4883,10 -10,10 -5.5117,0 -10,-4.4883 -10,-10 0,-5.5117 4.4883,-10 10,-10 5.5117,0 10,4.4883 10,10 z m -9,-11.949 v -7.0195 c 2.2383,0.10938 4.3906,0.60938 6.4414,1.4883 l -2.4609,2.4609 c -0.19141,0.19141 -0.30078,0.44141 -0.30078,0.69922 v 3.2695 c -1.1406,-0.48828 -2.3789,-0.78906 -3.6797,-0.89844 z m 3.9883,27.66 1.9688,1.9688 c -1.8789,0.73828 -3.8906,1.1797 -5.9609,1.2891 v -7.0195 c 1.3008,-0.10938 2.5508,-0.42188 3.6992,-0.91016 v 3.9609 c 0,0.26953 0.10156,0.51953 0.28906,0.71094 z M 49,61.94921 v 7.0195 c -2.0703,-0.10156 -4.0898,-0.55078 -6.0117,-1.3086 l 2.0312,-2.0391 c 0.19141,-0.19141 0.28906,-0.44141 0.28906,-0.71094 v -3.8594 c 1.1484,0.48828 2.3906,0.78906 3.6914,0.89844 z m 0,-23.898 c -1.3008,0.10938 -2.5391,0.41016 -3.6914,0.89844 v -3.2617 c 0,-0.26953 -0.10156,-0.51953 -0.28906,-0.71094 l -2.4609,-2.4609 c 2.0391,-0.87891 4.1992,-1.3789 6.4414,-1.4883 z m -5.75,35 c -0.17969,-0.03125 -0.35938,-0.07813 -0.53906,-0.12109 -0.08984,-0.05859 -0.17969,-0.12891 -0.28906,-0.16016 -7.8398,-2.5898 -13.711,-8.9805 -15.691,-16.898 1,0.21094 2.0703,0.14844 3.0586,-0.16016 1.6016,5.6914 5.6484,10.559 11.02,13.18 0.01172,0 0.03125,0.01953 0.05078,0.03125 2.8906,1.3789 5.9609,2.0781 9.1406,2.0781 6.2695,0 12.172,-2.7695 16.172,-7.6016 0.35156,-0.42188 0.28906,-1.0508 -0.12891,-1.3984 -0.42969,-0.35938 -1.0586,-0.30078 -1.4102,0.12891 -1.6094,1.9414 -3.5586,3.5117 -5.7305,4.6602 l -2.1992,-2.1992 v -4.6406 c 3.1914,-2.1602 5.3008,-5.8086 5.3008,-9.9492 0,-4.1406 -2.1094,-7.8008 -5.3203,-9.9609 v -3.9414 l 2.6484,-2.6406 c 4.6914,2.6484 8.1016,7.2383 9.2305,12.5 -0.23047,0.26172 -0.42969,0.53125 -0.60938,0.80859 -0.01953,0.03906 -0.05078,0.07813 -0.07813,0.12891 -0.16016,0.26953 -0.30859,0.55859 -0.42969,0.85156 -0.01953,0.05859 -0.03906,0.10938 -0.05859,0.17188 -0.10938,0.30078 -0.19922,0.60938 -0.26172,0.92188 -0.01172,0.05078 -0.01953,0.08984 -0.01953,0.14062 -0.05859,0.33984 -0.10156,0.67969 -0.10156,1.0195 0,0.33981 0.03906,0.69141 0.10156,1.0195 0,0.05078 0.01172,0.08984 0.01953,0.14062 0.05859,0.30859 0.14844,0.62109 0.26172,0.92188 0.01953,0.05859 0.03906,0.10938 0.05859,0.16016 0.12109,0.30078 0.26953,0.58984 0.42969,0.85937 0.03125,0.05078 0.05859,0.08984 0.07813,0.12891 0.17969,0.28125 0.37891,0.55078 0.60938,0.80078 -0.19141,0.89062 -0.44141,1.7695 -0.76172,2.6211 -0.19141,0.51172 0.07031,1.0898 0.58984,1.2812 0.12109,0.05078 0.23047,0.07031 0.35156,0.07031 0.41016,0 0.78906,-0.25 0.94141,-0.66016 0.23828,-0.66016 0.44141,-1.3281 0.62109,-2.0195 0.91016,0.46094 1.9219,0.71094 2.9414,0.67969 -2.2188,8.6211 -9.1211,15.238 -17.609,17.301 -2.0391,0.30859 -4.0781,0.44922 -6.1094,0.41016 -2.0703,-0.03125 -4.1797,-0.25 -6.2695,-0.66016 z m 23.34,-3.0703 c 4.5117,-3.7383 7.7695,-8.9883 8.9297,-15.031 0.07031,-0.35156 -0.05078,-0.71094 -0.32031,-0.94141 -0.26172,-0.23047 -0.64062,-0.30859 -0.96875,-0.19922 -1.2891,0.42188 -2.8398,0.12109 -3.9102,-0.83984 -0.83984,-0.76172 -1.3203,-1.8398 -1.3203,-2.9688 0,-0.28125 0.03125,-0.55859 0.08984,-0.82812 0.17188,-0.82031 0.60156,-1.5703 1.2305,-2.1406 1.0703,-0.96094 2.6211,-1.2617 3.9102,-0.83984 0.32812,0.10938 0.71094,0.03906 0.96875,-0.19922 0.26953,-0.23047 0.39062,-0.58984 0.32031,-0.94141 -0.42969,-2.25 -1.1602,-4.4297 -2.1719,-6.4883 -0.23828,-0.5 -0.83984,-0.69922 -1.3398,-0.46094 -0.48828,0.23828 -0.69922,0.83984 -0.44922,1.3398 0.71094,1.4609 1.2812,2.9883 1.6797,4.5586 -1.0195,-0.03125 -2.0312,0.21875 -2.9297,0.67188 -1.5,-5.6992 -5.4219,-10.621 -10.699,-13.34 -0.03125,0 -0.05078,-0.01953 -0.07813,-0.03906 -2.9688,-1.5195 -6.1719,-2.2891 -9.5312,-2.2891 -3.3593,0 -6.5703,0.76953 -9.5312,2.2891 0,0 -0.05078,0.03125 -0.07813,0.03906 -5.2188,2.6797 -9.0312,7.3594 -10.602,12.961 -0.98828,-0.30078 -2.0586,-0.37109 -3.0586,-0.16016 1.8789,-7.5195 7.3203,-13.66 14.488,-16.469 1.2695,-0.33984 2.5508,-0.62109 3.8203,-0.82812 1.3906,-0.21094 2.7812,-0.33984 4.1211,-0.39063 2.6797,-0.10156 5.3789,0.12109 8.0508,0.64063 3.7891,1.1797 7.2383,3.3008 10.078,6.25 0.19922,0.21094 0.46094,0.30859 0.71875,0.30859 0.26172,0 0.5,-0.08984 0.69922,-0.28125 0.39062,-0.37891 0.39844,-1.0195 0.01953,-1.4102 -0.46875,-0.48828 -0.96094,-0.94922 -1.4609,-1.3906 7.7891,3.9102 15.43,10.59 22.75,19.93 -1.9688,2.6484 -10.641,13.629 -23.422,19.48 z"
   stroke-linecap="round"
   id="path156" />
</g>
		<g
   transform="translate(0,0.09)"
   id="g162">
<path
   style="opacity:1;fill:#0b5ed7;fill-rule:nonzero;stroke:none;stroke-width:1;stroke-linecap:butt;stroke-linejoin:miter;stroke-miterlimit:4;stroke-dasharray:none;stroke-dashoffset:0"
   vector-effect="non-scaling-stroke"
   transform="translate(-49.98,-50.09)"
   d="m 50.262,76.219 h -0.78125 c -2.2109,-0.03125 -4.4688,-0.26953 -6.7109,-0.71094 -2.3398,-0.44922 -4.7305,-1.1406 -7.0898,-2.0391 L 35.26989,73.3088 c -3.9219,-1.5391 -7.8984,-3.75 -11.781,-6.5508 -0.32812,-0.23047 -0.53906,-0.57812 -0.60156,-0.98047 -0.05859,-0.39844 0.03125,-0.78906 0.26953,-1.1211 0.23047,-0.32812 0.57812,-0.53906 0.98047,-0.60156 0.39844,-0.05859 0.78906,0.03125 1.1211,0.26953 1.5586,1.1289 3.1602,2.1602 4.7617,3.0898 -3.1602,-3.6406 -5.3008,-8.1094 -6.1211,-12.898 -0.08984,-0.58984 0.17187,-1.1797 0.66016,-1.5 0.48828,-0.33984 1.1406,-0.33984 1.6289,0 1.0391,0.64062 2.4688,0.67188 3.5508,0.03906 1.0898,-0.62109 1.7695,-1.7812 1.7695,-3.0391 0,-1.2617 -0.67187,-2.4219 -1.7617,-3.0391 -1.0898,-0.62109 -2.5312,-0.60156 -3.5781,0.05859 -0.5,0.32031 -1.1406,0.30859 -1.6289,-0.03125 -0.48047,-0.32031 -0.73828,-0.91016 -0.64844,-1.4883 0.76953,-4.5117 2.6484,-8.6602 5.5,-12.172 -9.9492,6.0391 -16.91,14.648 -18.781,17.09 2.7188,3.2109 5.4883,6.1211 8.2383,8.6484 0.60938,0.55859 0.64844,1.5117 0.08984,2.1211 -0.26953,0.28906 -0.64062,0.46875 -1.0391,0.48047 -0.39844,0.01172 -0.78125,-0.12109 -1.0781,-0.39062 -3.1094,-2.8594 -6.2305,-6.1719 -9.2695,-9.8398 -0.42969,-0.51953 -0.46094,-1.2617 -0.078125,-1.8086 0.42969,-0.62891 10.789,-15.41 27.012,-22.309 3.3594,-1.4219 6.7891,-2.4102 10.172,-2.9492 1.5,-0.23047 2.9805,-0.37109 4.4102,-0.42188 5.0898,-0.19922 10.211,0.66016 15.199,2.5586 9.7812,3.7383 19.238,11.488 28.18,23.059 0.39844,0.51953 0.42188,1.2305 0.05078,1.7617 -0.46094,0.67188 -11.469,16.539 -29.059,22.609 -4.3516,1.5117 -8.7812,2.2812 -13.18,2.2812 z m -13.91,-3.5703 c 2.1992,0.82031 4.4219,1.4492 6.6094,1.8789 2.1797,0.42969 4.3789,0.66016 6.5312,0.69141 4.5586,0.08984 9.1211,-0.64844 13.621,-2.2188 17.281,-5.9609 28.109,-21.57 28.559,-22.23 0.12109,-0.17969 0.12109,-0.42188 -0.01953,-0.58984 -8.8281,-11.422 -18.141,-19.059 -27.691,-22.711 -4.9297,-1.8711 -9.9219,-2.7109 -14.871,-2.5195 -1.3984,0.05078 -2.8398,0.19141 -4.3008,0.41016 -3.3008,0.53125 -6.6484,1.5 -9.9414,2.8789 -15.949,6.7812 -26.148,21.34 -26.57,21.961 -0.12891,0.17969 -0.12109,0.42969 0.03125,0.60156 3.0117,3.6406 6.1016,6.9219 9.1797,9.7383 0.10156,0.08984 0.23047,0.14844 0.35938,0.12891 0.12891,0 0.26172,-0.05859 0.35156,-0.16016 0.19141,-0.19922 0.17188,-0.51953 -0.03125,-0.71094 -2.8711,-2.6406 -5.7617,-5.6797 -8.5781,-9.0391 l -0.25,-0.30078 0.23828,-0.32031 c 2.1992,-2.9414 10.27,-13.02 22.078,-19.238 l 3.0703,-1.6211 -2.4883,2.4219 c -3.8984,3.8008 -6.4492,8.6211 -7.3594,13.969 -0.03125,0.19141 0.05859,0.39062 0.21875,0.5 0.160156,0.10938 0.37891,0.10938 0.53125,0.01172 1.3516,-0.85156 3.1992,-0.87891 4.6094,-0.07813 1.3984,0.80078 2.2617,2.3008 2.2617,3.8984 0,1.6016 -0.87109,3.1094 -2.2695,3.8984 -1.3906,0.80078 -3.2383,0.76953 -4.5898,-0.07031 -0.17188,-0.10938 -0.37891,-0.10938 -0.53125,0 -0.17188,0.10938 -0.26172,0.30859 -0.23047,0.51172 0.96875,5.6602 3.8594,10.879 8.1406,14.691 l 2.7617,2.4609 -3.3203,-1.6406 c -2.6289,-1.3008 -5.2617,-2.8906 -7.8008,-4.7305 -0.10938,-0.07813 -0.23828,-0.10938 -0.37109,-0.08984 -0.12891,0.01953 -0.25,0.08984 -0.32812,0.19922 -0.07813,0.10938 -0.10938,0.23828 -0.08984,0.37109 0.01953,0.12891 0.08984,0.25 0.19922,0.32813 3.8984,2.8203 7.8984,5.0195 11.871,6.5391 l 0.41016,0.17188 z m 13.84,1.5703 h -0.67969 c -2.0898,-0.03125 -4.2305,-0.25 -6.3594,-0.67188 l -0.75,-0.21094 c 0,0 -0.10156,-0.07031 -0.14062,-0.08984 -7.9883,-2.6406 -13.98,-9.0898 -16.02,-17.25 l -0.19141,-0.76953 0.78125,0.16016 c 0.91016,0.19141 1.8906,0.14062 2.8086,-0.14844 l 0.48828,-0.14844 0.14062,0.5 c 1.5781,5.6094 5.5,10.301 10.762,12.871 l 0.08984,0.05078 c 2.8086,1.3281 5.8008,2.0117 8.8789,2.0117 6.1289,0 11.879,-2.6992 15.789,-7.4219 0.07813,-0.10156 0.12109,-0.23047 0.10938,-0.35937 -0.01172,-0.12891 -0.07031,-0.25 -0.17969,-0.33984 -0.109377,-0.08984 -0.25,-0.12891 -0.37109,-0.12109 -0.12891,0.01172 -0.25,0.07813 -0.32812,0.17969 -1.6406,1.9805 -3.6211,3.5781 -5.8789,4.7891 l -0.32812,0.17188 -2.6094,-2.6094 v -5.1094 l 0.21875,-0.14844 c 3.1797,-2.1484 5.0781,-5.7188 5.0781,-9.5391 0,-3.8203 -1.9102,-7.3984 -5.1016,-9.5391 l -0.21875,-0.14844 v -4.4102 l 3.0703,-3.0508 0.32812,0.19141 c 4.8594,2.75 8.3086,7.4219 9.4688,12.828 v 0.30078 l -0.12109,0.14844 c -0.19141,0.21094 -0.37891,0.44922 -0.55859,0.73047 l -0.5,-0.14062 0.42969,0.25 C 68.137,47.44517 68.0081,47.7147 67.89872,47.9647 l -0.05078,0.14844 c -0.10938,0.28906 -0.19141,0.57031 -0.23828,0.83984 l -0.01953,0.12891 c -0.05859,0.35156 -0.08984,0.66016 -0.08984,0.92969 0,0.26953 0.03125,0.58984 0.08984,0.92969 l -0.48047,0.19922 0.48828,-0.10156 c 0.05859,0.30859 0.14062,0.58984 0.23828,0.87891 l 0.05078,0.14062 c 0.10156,0.25 0.23047,0.51953 0.39844,0.78906 0.05078,0.07813 0.07813,0.12109 0.10156,0.16016 0.16016,0.23828 0.33984,0.48047 0.53125,0.69141 l 0.12891,0.14062 v 0.30859 c -0.21094,0.94141 -0.48047,1.8398 -0.78906,2.6797 -0.03906,0.12109 -0.03906,0.26172 0.01953,0.37891 0.05859,0.12109 0.14844,0.21094 0.28125,0.26172 0.35156,0.14062 0.55859,-0.03125 0.64844,-0.28906 0.21875,-0.60156 0.42188,-1.2383 0.60938,-1.9688 l 0.16016,-0.60156 0.55078,0.28125 c 0.85938,0.44141 1.8008,0.66016 2.6992,0.62891 l 0.67188,-0.01953 -0.17188,0.64062 c -2.25,8.75 -9.1406,15.512 -17.98,17.66 -1.8984,0.28906 -3.75,0.42969 -5.5586,0.42969 z m -7.2812,-1.7578 0.42969,0.08984 c 2.0703,0.39844 4.1484,0.62109 6.1914,0.64844 1.9688,0.03125 3.9883,-0.10156 6.0312,-0.39844 8.2188,-2 14.711,-8.2305 17.031,-16.328 -0.66016,-0.05078 -1.3203,-0.21094 -1.9609,-0.46875 -0.14844,0.53906 -0.30859,1.0312 -0.48047,1.4883 -0.28906,0.78906 -1.1992,1.1992 -1.9492,0.87891 -0.35156,-0.12891 -0.64844,-0.39844 -0.82031,-0.76953 -0.17187,-0.35937 -0.19141,-0.76953 -0.05078,-1.1484 0.26953,-0.71875 0.5,-1.5 0.69141,-2.3086 -0.17188,-0.19922 -0.32813,-0.42188 -0.48828,-0.67188 l -0.08984,-0.14844 c -0.19141,-0.32031 -0.35156,-0.62891 -0.46094,-0.92969 -0.01953,-0.05078 -0.03906,-0.10938 -0.07031,-0.17969 -0.12109,-0.32812 -0.21875,-0.66016 -0.28125,-0.98828 -0.01172,-0.07031 -0.03125,-0.14062 -0.03125,-0.23828 -0.05859,-0.30859 -0.10156,-0.67188 -0.10156,-1.0195 0,-0.35156 0.03906,-0.69922 0.10938,-1.1094 0,0 0,-0.07031 0.01953,-0.12891 0.07031,-0.35156 0.16016,-0.67969 0.28906,-1.0195 l 0.07031,-0.19141 c 0.12109,-0.28906 0.28125,-0.60156 0.46094,-0.92188 l 0.5,0.14062 -0.44141,-0.23828 c 0.17969,-0.28125 0.35156,-0.51172 0.51953,-0.71875 -1.1016,-4.8516 -4.2188,-9.1289 -8.6211,-11.738 l -2.2305,2.2188 v 3.4688 c 3.3398,2.3516 5.3203,6.1484 5.3203,10.219 0,4.0703 -1.9805,7.8594 -5.3008,10.211 v 4.1719 l 1.7891,1.7891 c 2.0117,-1.1211 3.7812,-2.5781 5.25,-4.3594 0.25,-0.30859 0.60938,-0.5 1.0117,-0.53906 0.39844,-0.03906 0.78906,0.07813 1.1016,0.35156 0.62891,0.53125 0.71875,1.4688 0.19141,2.1016 -4.0898,4.9414 -10.129,7.7812 -16.551,7.7812 -3.25,0 -6.3984,-0.71875 -9.3594,-2.1289 l -0.10938,-0.05859 c -5.3398,-2.6211 -9.3594,-7.3398 -11.09,-12.988 -0.67188,0.16016 -1.3594,0.21094 -2.0391,0.14844 2.1211,7.4883 7.7383,13.371 15.172,15.82 0.12891,0.03906 0.23828,0.10938 0.33984,0.17188 z m 20.449,-0.44922 2.9102,-2.4102 c 4.5508,-3.7695 7.6602,-9.0117 8.7617,-14.738 0.03906,-0.17969 -0.01953,-0.35938 -0.14844,-0.46875 -0.12891,-0.12109 -0.32812,-0.16016 -0.48828,-0.10938 -1.4883,0.48828 -3.2188,0.12109 -4.3984,-0.94141 -0.94922,-0.85156 -1.4883,-2.0703 -1.4883,-3.3398 0,-0.32031 0.03125,-0.62891 0.10156,-0.94141 0.19141,-0.92188 0.67188,-1.7617 1.3789,-2.3984 1.1797,-1.0586 2.9102,-1.4297 4.3984,-0.94141 0.17188,0.05859 0.35938,0.01953 0.48047,-0.08984 0.14062,-0.12109 0.19922,-0.30078 0.17187,-0.46875 -0.42187,-2.2109 -1.1406,-4.3516 -2.1289,-6.3711 -0.05859,-0.12109 -0.16016,-0.21094 -0.28125,-0.25 -0.12891,-0.03906 -0.26953,-0.03906 -0.39062,0.01953 -0.12109,0.05859 -0.19922,0.16016 -0.25,0.28125 -0.03906,0.12891 -0.03125,0.26172 0.03125,0.37891 0.73828,1.5195 1.3203,3.0898 1.7188,4.6602 l 0.16016,0.64063 -0.66016,-0.01953 c -0.87891,-0.03125 -1.8281,0.19141 -2.6914,0.62109 l -0.55078,0.28125 -0.16016,-0.60156 c -1.4805,-5.6211 -5.2891,-10.359 -10.441,-13.02 l -0.12891,-0.07031 c -2.8398,-1.4492 -5.9688,-2.1992 -9.25,-2.1992 -3.2812,0 -6.2188,0.71094 -9.0312,2.1016 v 0.05078 l -0.33984,0.12891 c -5.0586,2.5898 -8.8281,7.1992 -10.359,12.648 l -0.14062,0.48828 -0.48828,-0.14844 c -0.94141,-0.28906 -1.9219,-0.33984 -2.8086,-0.14844 l -0.78125,0.16016 0.19141,-0.76953 c 1.9102,-7.6484 7.4414,-13.93 14.789,-16.809 1.4805,-0.39062 2.75,-0.67188 3.9219,-0.85156 1.4219,-0.21875 2.8203,-0.35156 4.1797,-0.39844 2.6719,-0.10938 5.4297,0.12109 8.1719,0.64844 3.9297,1.2188 7.4883,3.4297 10.34,6.3906 0.25,0.26172 0.46094,0.25 0.71875,0.01172 0.19141,-0.17969 0.19141,-0.51172 0,-0.69922 -0.42188,-0.42969 -0.87109,-0.87109 -1.4414,-1.3711 l -2.8203,-2.5195 3.3789,1.6992 c 7.8594,3.9414 15.57,10.699 22.922,20.07 l 0.23828,0.30078 -0.23047,0.30859 c -2.3281,3.1406 -10.898,13.82 -23.621,19.641 l -3.4414,1.5703 z m 11.172,-18.75 c 0.35938,0 0.73047,0.12891 1,0.37109 0.39844,0.33984 0.57812,0.87891 0.48047,1.4102 -0.92969,4.8398 -3.2305,9.3398 -6.6094,12.961 10.68,-5.8398 18.039,-14.949 19.969,-17.5 -6.4219,-8.1406 -13.109,-14.238 -19.91,-18.18 0.10937,0.48828 -0.03125,1.0195 -0.42188,1.3984 -0.58984,0.55859 -1.5703,0.53906 -2.1289,-0.03906 -2.7383,-2.8398 -6.1484,-4.9609 -9.8711,-6.1211 -2.6094,-0.5 -5.2812,-0.71875 -7.8789,-0.62109 -1.3203,0.05078 -2.6914,0.17969 -4.0586,0.37891 -1.1406,0.17969 -2.3711,0.44922 -3.7617,0.82031 -6.7617,2.6484 -11.941,8.3789 -13.93,15.379 0.67188,-0.05078 1.3594,0 2.0391,0.14844 1.6797,-5.5117 5.5703,-10.148 10.711,-12.801 l 0.07813,-0.03906 c 3.0312,-1.5586 6.3086,-2.3516 9.7617,-2.3516 3.4492,0 6.7188,0.78906 9.7617,2.3398 5.3203,2.7383 9.2305,7.4883 10.879,13.129 0.64062,-0.25 1.3008,-0.41016 1.9609,-0.46094 -0.37109,-1.3008 -0.87109,-2.6016 -1.4805,-3.8594 -0.17969,-0.35938 -0.21094,-0.76172 -0.07813,-1.1406 0.12891,-0.37891 0.39844,-0.69141 0.76172,-0.85938 0.37109,-0.17969 0.78125,-0.19922 1.1602,-0.07031 0.37891,0.12891 0.67969,0.39844 0.85156,0.76172 1.0312,2.1016 1.7695,4.3203 2.2109,6.6094 0.10938,0.51953 -0.07813,1.0703 -0.48828,1.4102 -0.37109,0.33984 -0.94922,0.46094 -1.4492,0.28906 -1.1602,-0.37109 -2.5,-0.08984 -3.4219,0.73828 -0.55078,0.5 -0.92188,1.1484 -1.0781,1.8711 -0.05078,0.23828 -0.07813,0.48047 -0.07813,0.73047 0,0.98828 0.42188,1.9297 1.1602,2.6016 0.92188,0.82031 2.2617,1.1094 3.4219,0.73828 0.14844,-0.05078 0.30078,-0.07031 0.46094,-0.07031 z m -24.031,16.238 v -8.0117 l 0.46094,-0.03906 c 1.2383,-0.10938 2.4414,-0.39844 3.5508,-0.87109 l 0.69922,-0.30078 v 4.7188 c 0,0.14062 0.05078,0.26172 0.14062,0.35938 l 2.5117,2.5117 -0.71094,0.28125 c -1.9492,0.76953 -4.0117,1.2109 -6.1211,1.3203 z m 1,-7.1016 v 6.0312 c 1.5586,-0.12891 3.0898,-0.44922 4.5508,-0.94922 l -1.4219,-1.4219 c -0.28125,-0.28125 -0.44141,-0.66016 -0.44141,-1.0586 v -3.2305 c -0.85938,0.30859 -1.7695,0.51953 -2.6992,0.62891 z m -2,7.0898 -0.51953,-0.03125 c -2.1016,-0.10156 -4.1719,-0.55078 -6.1719,-1.3398 l -0.71094,-0.28125 2.5703,-2.5781 c 0.08984,-0.08984 0.14062,-0.21875 0.14062,-0.35937 v -4.6211 l 0.69922,0.30078 c 1.0898,0.46875 2.2812,0.76172 3.5391,0.85938 l 0.46094,0.03906 v 8 z m -5.6094,-2.0273 c 1.5,0.53125 3.0508,0.85156 4.6094,0.96875 v -6.0391 C 47.55939,62.28115 46.661,62.07022 45.8094,61.76944 v 3.1289 c 0,0.39844 -0.14844,0.78125 -0.44141,1.0586 l -1.4805,1.4883 z m -2.75,-0.08203 -0.32812,-0.17969 c -4.8008,-2.5781 -8.3281,-7.0586 -9.6797,-12.289 l -0.07812,-0.32031 0.26953,-0.19922 c 1.3711,-1.0312 2.1797,-2.6719 2.1797,-4.3789 0,-1.7109 -0.80859,-3.3398 -2.1602,-4.3711 L 31.08277,45.44141 31.1609,45.1211 c 1.3203,-5.1602 4.6211,-9.4492 9.2891,-12.07 l 0.32812,-0.19141 3.0312,3.0508 v 4.4102 l -0.21875,0.14844 c -3.1914,2.1484 -5.0898,5.7188 -5.0898,9.5508 0,3.8281 1.8984,7.3906 5.0898,9.5508 l 0.21875,0.14844 v 5.0117 l -2.6719,2.6719 z m -8.9492,-12.41 c 1.3008,4.7109 4.4805,8.75 8.7695,11.172 l 1.8516,-1.8516 v -4.0703 c -3.3281,-2.3516 -5.3086,-6.1484 -5.3086,-10.219 0,-4.0706 1.9805,-7.8711 5.3086,-10.219 v -3.4688 l -2.1992,-2.2109 c -4.1719,2.4492 -7.1289,6.3203 -8.3984,10.949 1.4414,1.2305 2.2891,3.0508 2.2891,4.9609 0,1.9102 -0.85938,3.7383 -2.3086,4.9688 z m 17.809,5.5312 c -5.7891,0 -10.5,-4.7109 -10.5,-10.5 0,-5.7891 4.7109,-10.5 10.5,-10.5 5.7891,0 10.5,4.7109 10.5,10.5 0,5.7891 -4.7109,10.5 -10.5,10.5 z m 0,-20 c -5.2383,0 -9.5,4.2617 -9.5,9.5 0,5.2383 4.2617,9.5 9.5,9.5 5.2383,0 9.5,-4.2617 9.5,-9.5 0,-5.2383 -4.2617,-9.5 -9.5,-9.5 z m 5.1797,-0.78906 -0.69922,-0.30078 c -1.0781,-0.46094 -2.2695,-0.75 -3.5195,-0.85938 l -0.46094,-0.03906 v -8 l 0.51953,0.03125 c 2.2812,0.10938 4.5117,0.62891 6.6094,1.5312 l 0.67969,0.28906 -2.9805,2.9805 c -0.10156,0.10156 -0.14844,0.21875 -0.14844,0.35156 v 4.0312 z m -3.6797,-2.1094 c 0.94141,0.10938 1.8281,0.32031 2.6797,0.62109 v -2.5391 c 0,-0.39062 0.16016,-0.76953 0.44922,-1.0508 l 1.9297,-1.9297 c -1.6211,-0.62109 -3.3203,-1 -5.0508,-1.1406 v 6.0391 z m -6.6914,2.1094 v -4.0195 c 0,-0.14062 -0.05078,-0.26172 -0.14062,-0.35938 l -2.9805,-2.9805 0.67969,-0.28906 c 2.0898,-0.89844 4.3203,-1.4219 6.6094,-1.5312 L 49.4973,30.5001 v 8 l -0.46094,0.03906 c -1.25,0.10938 -2.4414,0.39844 -3.5391,0.85938 l -0.69922,0.30078 z m -1.3594,-7.0117 1.9297,1.9297 c 0.28125,0.28125 0.44141,0.66016 0.44141,1.0586 v 2.5312 c 0.85156,-0.30078 1.75,-0.51172 2.6914,-0.62109 v -6.0391 c -1.7383,0.14062 -3.4414,0.51953 -5.0508,1.1406 z"
   stroke-linecap="round"
   id="path160" />
</g>
</g>
</g>
<g
   transform="matrix(NaN NaN NaN NaN 0 0)"
   id="g170">
<g
   style=""
   id="g168">
</g>
</g>
<g
   transform="matrix(NaN NaN NaN NaN 0 0)"
   id="g174">
<g
   style=""
   id="g172">
</g>
</g>
<g
   transform="matrix(NaN NaN NaN NaN 0 0)"
   id="g178">
<g
   style=""
   id="g176">
</g>
</g>
<g
   transform="matrix(NaN NaN NaN NaN 0 0)"
   id="g182">
<g
   style=""
   id="g180">
</g>
</g>
</svg>
